<svg width="1029" height="690" viewBox="0 0 1029 690" fill="none" xmlns="http://www.w3.org/2000/svg">
<path fill-rule="evenodd" clip-rule="evenodd" d="M938.714 212.465C934.14 205.025 930.138 197.299 924.42 190.717C922.705 188.714 921.276 186.425 921.562 183.564C921.562 182.419 921.276 180.988 920.704 180.13C918.703 176.982 917.845 172.976 914.415 170.687C913.271 169.829 912.986 168.112 912.128 166.967C911.27 165.536 910.127 164.964 908.412 164.964C908.126 164.964 907.554 165.25 907.268 165.823C907.268 165.823 906.982 166.395 907.268 166.395C907.554 166.681 907.84 167.253 908.126 167.539C910.699 170.401 910.699 170.401 908.412 174.121C908.126 174.407 907.84 174.979 908.126 175.552C908.412 176.41 908.698 177.268 909.269 178.127C910.985 180.416 911.27 182.991 911.842 185.567C911.842 185.853 911.556 186.425 911.27 186.711C910.985 187.284 909.841 186.711 909.841 185.567C909.555 184.136 909.269 182.705 908.126 181.561C907.268 180.988 906.982 179.844 906.982 178.985C907.268 176.696 905.839 175.265 904.124 174.407C901.265 172.69 898.121 171.259 895.262 168.97C894.69 168.684 893.833 168.398 893.261 168.398C892.117 168.398 890.688 168.684 889.545 168.684C888.115 168.684 887.258 169.256 886.972 170.687C886.686 172.404 886.114 173.835 884.685 174.979C884.685 174.979 884.113 174.979 883.827 174.979C882.684 172.976 881.826 171.259 880.969 169.256C880.969 168.97 880.397 168.684 880.397 168.684C880.111 168.97 879.539 169.256 879.253 169.542C878.396 170.401 878.682 171.259 878.968 172.118C878.968 172.404 878.682 172.976 878.396 173.262C877.824 173.549 877.538 173.262 877.252 172.69C876.395 170.973 875.823 169.256 875.251 167.253C874.68 165.536 873.822 165.25 871.821 165.823C870.963 166.109 870.392 166.395 869.82 166.395C868.962 166.395 868.39 166.395 867.533 166.395C866.104 166.395 865.246 164.964 865.532 163.819C865.818 163.247 866.104 162.389 866.389 161.816C867.533 159.813 868.676 157.524 870.106 155.521C871.535 153.232 872.964 150.943 872.964 148.367C873.536 143.503 875.251 139.211 877.252 134.632C878.682 131.771 880.111 128.623 879.253 124.903C878.968 123.473 879.253 122.042 880.111 120.897C881.54 118.894 881.826 117.177 880.969 114.888C880.683 114.03 880.969 112.885 881.54 112.313C882.684 110.596 884.399 109.165 886.686 108.593C889.545 108.021 892.403 106.59 895.262 105.731C896.405 105.445 897.835 105.445 898.978 106.018C900.407 106.59 901.551 106.59 902.123 105.159C902.98 103.442 904.981 102.584 906.411 102.87C909.269 103.442 911.842 101.725 914.415 101.725C914.701 101.725 915.273 101.153 915.558 100.867C915.844 99.7223 916.13 98.5777 916.416 97.4331C916.702 96.2885 918.131 95.4301 919.275 95.4301C922.705 95.7162 926.135 96.0024 929.852 96.5747C930.423 96.5747 931.281 97.147 931.853 97.4331C932.139 97.7193 932.425 98.2916 932.139 98.5777C932.139 99.15 931.567 99.4362 931.281 99.7223C930.709 100.867 930.995 101.439 931.853 102.298C932.71 103.156 933.568 103.442 934.426 103.156C936.998 101.725 939.857 100.867 941.572 98.2916C942.144 97.4331 943.002 97.147 944.145 97.7193C945.289 98.0054 946.146 97.7193 946.718 96.8608C947.576 95.7162 949.576 95.4301 949.005 93.427C948.719 91.7102 947.004 91.7102 945.289 91.424C945.003 91.424 944.717 91.424 944.431 91.424C943.573 91.424 943.002 90.8517 942.716 90.2794C941.572 87.7041 941.286 85.1288 942.43 82.5534C942.716 81.9811 942.716 81.695 943.002 81.1227C944.145 79.1196 944.145 77.1166 944.145 74.8274C944.145 71.9659 944.431 69.1045 944.145 66.243C943.859 64.2399 945.003 62.5231 947.29 61.6646C949.005 61.0923 950.72 60.52 952.149 59.9477C953.865 59.0893 955.294 58.8031 957.295 59.3754C958.438 59.6616 959.01 59.0893 959.868 58.517C960.725 57.9447 961.583 58.2308 961.583 59.0893C961.869 60.8062 962.155 62.5231 962.155 63.9538C962.155 65.6707 963.298 66.5291 964.442 67.3876C965.871 68.246 967.586 68.8183 968.73 69.6768C969.016 69.9629 969.873 69.6767 969.873 69.3906C970.445 68.8183 970.731 68.246 971.016 67.6737C971.588 64.8122 972.16 61.9507 972.446 59.3754C972.732 57.3724 973.589 56.5139 975.59 55.9417C976.734 55.6555 976.734 54.5109 976.734 53.6525C976.734 53.6525 976.734 53.6525 977.02 53.6525L977.306 53.3663C977.306 53.3663 977.306 53.3663 977.591 53.3663V53.0802L977.306 53.3663C977.306 53.3663 977.02 53.3663 977.02 53.6525C976.734 53.6525 976.734 53.6525 976.448 53.3663C973.018 50.791 971.874 47.071 971.302 43.3511C971.302 43.065 971.588 42.7788 971.588 42.7788C972.446 41.0619 975.019 40.4896 976.734 41.3481C977.306 41.6342 977.877 42.4927 977.591 43.065C976.162 45.068 976.734 47.071 977.877 49.0741C979.307 51.6494 981.022 53.9386 980.736 57.0862C980.736 57.3724 981.022 57.9447 981.308 58.2308C983.023 60.2339 982.165 62.8092 983.023 65.0984C982.737 66.8153 981.022 67.9599 980.164 69.1045C979.878 69.3906 979.878 69.3906 979.593 69.6768C978.735 70.8214 978.163 71.9659 978.163 73.6828C978.163 77.4027 978.735 81.1227 977.02 84.8426C976.734 85.701 976.734 86.8456 976.734 87.7041C976.734 91.1379 976.448 94.8578 976.734 98.2916C977.02 101.153 976.448 104.015 974.447 106.304C973.875 106.876 973.875 107.734 973.303 108.307C973.018 108.879 972.16 109.165 971.588 109.737C969.587 111.168 969.301 111.454 970.731 112.885C972.446 114.888 972.446 116.891 972.16 118.894C971.874 120.039 971.302 121.183 971.016 122.328C970.445 124.045 970.445 125.476 970.445 127.193C970.731 130.054 972.16 132.629 973.018 135.491C975.59 144.648 981.308 152.374 986.453 160.1C987.883 162.389 989.598 164.392 991.027 166.681C991.885 168.112 992.742 169.829 993.886 170.687C995.601 172.118 996.744 173.835 997.602 175.838C998.46 177.841 999.317 179.844 1000.17 181.847C1001.03 184.136 1003.03 184.994 1005.03 185.853C1005.32 185.853 1005.61 185.853 1005.61 185.567C1007.04 184.422 1007.04 182.705 1007.89 181.275C1009.89 177.555 1010.18 173.835 1008.47 169.542C1006.75 165.25 1006.18 164.106 1011.32 161.53C1011.61 161.53 1011.9 161.244 1011.9 161.244C1012.75 160.672 1012.75 160.1 1012.47 159.527C1011.9 158.383 1011.04 157.524 1010.47 156.38C1009.89 155.521 1009.61 154.663 1009.61 153.804C1009.61 151.801 1009.61 149.512 1009.89 147.509C1010.18 146.078 1011.04 144.934 1012.75 144.361C1013.9 143.789 1015.04 143.503 1016.18 142.931C1017.04 142.358 1017.61 140.641 1016.76 139.783C1015.61 138.352 1014.47 137.208 1013.32 136.063C1010.18 132.915 1009.04 129.196 1009.89 124.903C1009.89 124.331 1010.75 123.759 1011.32 123.759C1011.9 123.759 1012.18 124.045 1012.75 124.045C1014.18 124.045 1015.61 122.328 1015.04 121.183C1014.18 119.467 1012.75 118.036 1011.9 116.319C1011.04 114.602 1010.18 114.316 1008.47 114.602C1008.18 114.602 1007.32 114.316 1007.32 114.03C1006.46 112.027 1005.32 110.31 1006.18 108.021C1006.46 107.448 1006.46 106.59 1006.18 106.018C1006.18 105.445 1005.61 104.587 1005.32 104.015C1004.18 102.87 1002.75 102.298 1001.32 102.298C1001.03 102.298 1000.46 102.584 1000.17 102.87C999.603 103.442 999.317 104.015 999.031 104.301V104.587C999.317 104.587 999.317 104.587 999.317 104.587C999.317 104.873 999.317 104.873 999.031 104.587H998.746V104.301C997.316 103.728 996.459 102.584 995.887 101.153C994.743 98.5777 994.458 96.0024 994.743 93.427C995.029 89.421 994.743 85.4149 992.171 81.695C991.885 81.4088 991.885 80.8365 991.599 80.2642C990.741 77.6889 992.171 75.6859 995.029 74.8274C995.601 74.8274 996.173 74.8274 996.459 74.8274C997.888 74.8274 998.174 74.5413 998.46 73.1105C998.746 71.9659 998.746 70.8213 999.603 69.9629C1000.17 69.3906 1001.03 69.3906 1001.32 69.9629C1001.89 71.1075 1002.46 71.9659 1003.32 73.1105C1003.61 73.3967 1004.18 73.6828 1004.75 73.3967C1005.03 73.3967 1005.61 72.8244 1005.89 72.5382C1006.18 71.3936 1006.46 70.2491 1006.75 69.1045C1007.04 67.3876 1008.18 65.9568 1009.32 64.8122C1010.75 63.0953 1013.04 62.523 1015.33 61.9507C1016.76 61.6646 1018.18 62.8092 1019.33 63.3815C1020.47 64.2399 1021.9 65.0984 1023.04 65.9568C1023.33 66.243 1023.9 66.5291 1024.19 66.8153C1024.76 67.1014 1025.62 67.1014 1026.47 67.1014C1027.05 67.1014 1027.9 66.243 1027.9 65.6707C1027.9 63.9538 1026.47 62.523 1027.05 60.8062C1027.33 59.0893 1027.62 57.6585 1028.19 55.9417C1028.76 53.6525 1029.33 51.3633 1029.33 49.0741C1029.62 45.6403 1030.76 42.2065 1032.76 39.0589C1033.91 37.342 1034.76 35.339 1035.62 33.3359C1037.05 30.1883 1039.05 27.613 1041.63 25.3238C1042.48 24.4653 1043.91 24.1792 1045.06 24.1792C1046.77 24.1792 1048.49 24.4653 1050.2 24.4653C1051.06 24.4653 1051.63 24.4653 1052.49 24.1792C1052.77 24.1792 1053.35 23.6069 1053.35 23.3207C1053.63 20.1731 1053.63 17.0255 1050.49 14.7363C1049.63 14.164 1049.34 13.0194 1048.77 12.4471C1048.49 11.8748 1047.91 11.0164 1047.34 11.0164C1044.48 10.1579 1042.48 7.86875 1039.62 7.29646L1039.05 7.5826L1039.34 7.29646C1039.05 6.43801 1038.77 5.57956 1038.48 4.72112C1037.91 3.00423 1036.77 1.85963 1034.76 1.85963C1034.19 1.85963 1033.62 1.85963 1033.62 1.28734C1033.34 0.715042 1033.34 0.428894 1033.05 -0.143402C1031.91 -2.14644 1031.33 -2.71873 1029.05 -2.43259C1026.76 -1.86029 1025.33 -3.29103 1023.9 -4.72177C1023.33 -5.29407 1023.62 -6.43866 1024.19 -6.43866C1025.05 -6.72481 1026.19 -7.01096 1027.05 -7.2971C1029.91 -8.15555 1031.05 -9.87244 1031.33 -12.4478C1031.62 -15.3092 1031.62 -18.1707 1031.62 -21.0322C1031.62 -21.8907 1031.33 -23.0353 1030.76 -23.8937C1030.19 -25.0383 1029.33 -25.8967 1029.05 -27.0413C1028.48 -28.7582 1027.05 -29.9028 1025.33 -30.189C1023.33 -30.4751 1022.19 -31.6197 1021.04 -33.0504C1020.76 -33.6227 1020.47 -34.195 1020.76 -35.0535C1021.04 -35.6258 1021.33 -36.4842 1021.61 -37.0565C1022.19 -38.2011 1023.33 -38.2011 1023.9 -37.3427C1024.47 -35.6258 1025.62 -34.4812 1027.33 -33.6227C1031.91 -31.3335 1032.19 -31.6197 1034.48 -36.1981C1034.76 -36.7704 1034.76 -37.0565 1035.05 -37.6288C1035.91 -38.7734 1037.34 -39.6319 1038.77 -39.918C1039.91 -40.2041 1040.77 -39.3457 1041.34 -38.7734C1042.2 -37.915 1043.05 -37.0565 1043.91 -36.1981C1045.34 -34.7673 1047.06 -34.4812 1048.77 -35.3396C1050.2 -36.1981 1051.92 -36.7704 1053.63 -36.4842C1054.78 -36.4842 1056.2 -36.1981 1057.35 -36.1981C1058.21 -36.1981 1059.35 -36.4842 1060.21 -36.7704C1060.78 -36.7704 1061.06 -37.0565 1061.35 -37.6288C1061.64 -37.915 1062.21 -38.4873 1061.92 -38.7734C1061.64 -41.0626 1061.64 -43.6379 1058.21 -43.9241C1057.06 -43.9241 1056.78 -45.0687 1056.49 -45.9271C1056.49 -46.4994 1056.49 -46.7856 1056.49 -47.3578C1056.49 -49.647 1056.2 -51.6501 1053.63 -52.7947C1052.49 -53.367 1051.92 -54.5116 1051.06 -55.37C1050.2 -56.5146 1049.92 -56.8007 1051.06 -57.6592C1053.06 -59.0899 1053.92 -61.093 1054.49 -63.096C1054.78 -63.9544 1054.49 -64.5267 1054.2 -65.099C1052.2 -67.3882 1051.34 -69.9636 1051.34 -73.1112C1051.34 -73.9696 1050.77 -74.5419 1049.92 -74.5419C1049.34 -74.5419 1048.77 -74.2558 1048.49 -74.2558C1045.91 -74.8281 1043.34 -75.6865 1040.48 -75.9727C1039.62 -75.9727 1038.77 -76.8311 1037.91 -77.4034C1036.48 -78.2619 1035.05 -77.9757 1033.91 -76.8311C1032.19 -75.4004 1031.05 -73.6835 1028.48 -73.1112C1028.19 -73.1112 1027.9 -72.5389 1027.33 -71.9666C1026.76 -71.1081 1026.47 -69.9636 1027.05 -69.3913C1028.19 -68.2467 1029.33 -66.8159 1030.48 -65.6713C1031.05 -64.8129 1031.05 -63.9544 1030.76 -62.8099C1030.48 -62.5237 1030.19 -62.2376 1029.62 -61.9514C1029.33 -61.9514 1029.05 -61.9514 1029.05 -61.9514C1027.33 -65.3852 1023.62 -67.3882 1021.61 -70.822C1019.04 -73.1112 1016.18 -75.1142 1012.18 -74.2558C1010.75 -73.9696 1009.04 -73.9696 1007.89 -74.2558C1005.61 -74.8281 1003.61 -74.8281 1001.32 -74.8281C998.46 -74.8281 995.887 -75.1142 993.028 -75.9727C990.741 -76.8311 988.169 -77.1173 985.596 -75.9727C983.595 -75.1142 982.165 -75.6865 980.736 -76.8311C979.307 -77.9757 977.591 -78.548 975.876 -78.548C970.445 -79.1203 965.013 -80.8372 959.582 -80.2649C958.724 -80.2649 958.153 -80.2649 957.295 -80.551C953.579 -81.6956 950.148 -80.551 947.004 -79.1203C944.717 -78.2619 942.43 -76.8311 939.857 -76.8311C936.998 -76.8311 934.426 -75.6865 931.567 -75.9727C930.424 -75.9727 928.994 -75.6865 927.851 -75.6865C927.279 -75.6865 926.993 -75.1142 926.993 -74.5419C927.279 -72.2527 929.566 -70.5358 929.28 -67.9605C929.28 -67.6744 930.138 -66.8159 930.709 -66.5298C932.71 -65.9575 934.711 -65.3852 935.855 -63.9544C937.284 -62.2376 938.714 -60.8068 940.143 -59.0899C940.715 -58.5176 940.715 -57.0869 939.857 -56.5146C939 -55.9423 938.428 -55.0838 937.57 -54.5116C936.427 -53.6531 934.997 -53.6531 934.426 -54.7977C932.996 -57.6592 930.424 -58.8038 926.993 -59.0899C926.421 -59.0899 925.85 -59.0899 925.564 -59.3761C924.992 -59.6622 924.134 -59.9484 923.849 -60.5207C923.277 -61.3791 922.705 -62.2376 922.419 -63.096C922.133 -63.6683 922.133 -63.9544 922.705 -64.2406C924.42 -65.6713 923.849 -67.1021 922.991 -68.819C921.847 -70.5358 920.132 -70.5359 918.417 -70.5359C917.56 -70.5359 915.844 -69.1051 915.844 -68.2467C915.844 -66.2436 915.844 -64.5267 915.844 -62.5237C915.844 -61.3791 914.701 -60.2345 913.557 -59.9484C910.985 -59.6622 908.412 -59.3761 906.125 -58.8038C904.41 -58.2315 902.694 -57.9453 900.979 -58.5176C900.408 -58.5176 899.836 -58.5176 899.55 -58.5176C896.691 -57.0869 893.833 -55.6561 890.974 -54.2254C886.972 -51.9362 882.684 -50.7916 878.11 -51.3639C876.966 -51.3639 876.395 -51.9362 875.823 -53.0808C875.823 -53.367 875.537 -53.6531 875.537 -53.6531C874.68 -58.2315 871.821 -61.3791 867.819 -63.6683C867.533 -63.9544 866.961 -64.2406 866.675 -64.5267C862.387 -67.3882 857.813 -69.1051 852.668 -66.2436C851.81 -65.6713 850.667 -65.6713 849.809 -65.3852C845.807 -63.9544 842.091 -62.2376 838.66 -59.6622C836.945 -58.5176 834.944 -57.373 832.943 -56.2284C831.514 -55.37 829.799 -55.9423 829.227 -57.373C828.369 -59.0899 827.226 -60.2345 825.511 -60.8068C824.367 -61.3791 823.224 -61.6653 822.08 -62.2376C820.651 -62.8098 819.793 -62.5237 818.65 -61.6653C817.506 -60.8068 817.506 -60.8068 816.363 -61.6653C815.505 -62.2376 814.648 -62.8098 813.79 -62.5237C812.932 -62.2376 812.075 -62.2376 811.789 -62.8099C810.645 -63.9544 809.216 -64.2406 807.787 -64.5267C807.215 -64.5267 807.215 -65.099 807.501 -65.6713C808.644 -67.6744 808.644 -68.819 807.501 -69.9636C807.215 -70.2497 807.215 -70.2497 806.929 -70.5359C804.071 -72.2527 801.212 -73.3973 797.781 -72.5389C796.352 -72.2527 794.923 -71.9666 793.493 -71.3943C792.636 -71.1081 791.492 -70.5359 790.921 -69.9636C789.206 -67.9605 787.49 -67.6744 784.917 -68.5328C782.345 -69.1051 779.486 -69.1051 776.627 -69.1051C773.483 -69.1051 770.052 -68.819 766.908 -68.2467C763.763 -67.9605 760.333 -67.3882 757.189 -68.5328C756.617 -68.819 755.759 -68.2467 755.187 -67.9605C754.902 -67.6744 754.616 -67.1021 754.616 -66.8159C754.616 -66.5298 754.902 -66.2436 754.902 -66.2436C756.045 -65.6713 757.188 -65.3852 758.332 -65.099C758.618 -64.8129 758.904 -64.5267 759.19 -63.9544C759.475 -63.6683 758.904 -62.5237 758.046 -62.2376C757.474 -61.9514 756.617 -61.9514 756.045 -61.3791C754.616 -60.5207 754.044 -59.3761 754.044 -57.6592C754.044 -56.5146 755.187 -55.37 756.331 -55.37C757.188 -55.37 758.332 -55.37 759.19 -55.37C759.19 -55.37 759.19 -55.37 759.19 -55.6561V-55.9423V-55.37C758.904 -54.2254 758.904 -53.0808 759.761 -52.2224C760.905 -50.5055 762.048 -49.0747 763.763 -47.9301C764.335 -47.3578 764.335 -46.7856 764.049 -45.9271C763.478 -45.3548 762.906 -44.7825 762.048 -45.3548C760.333 -46.4994 758.904 -46.7856 757.189 -45.641C756.045 -45.0687 754.902 -44.4964 754.044 -43.6379C752.9 -42.7795 751.471 -42.2072 749.756 -42.4933C748.612 -42.7795 747.183 -42.7795 746.04 -42.7795C744.324 -42.4933 742.609 -41.921 742.038 -39.918C741.466 -37.915 740.322 -37.3427 738.321 -37.0565C734.605 -36.7704 731.461 -37.6288 728.602 -39.918C728.316 -40.2041 728.316 -40.2041 728.03 -40.2041C727.744 -40.2041 727.458 -40.2041 727.458 -40.2041C727.173 -40.2041 727.173 -39.918 727.173 -39.6318C727.173 -37.3427 727.744 -35.3396 728.602 -33.3366C729.745 -30.7613 730.889 -28.1859 731.461 -25.3244C731.461 -24.466 731.175 -24.1798 730.031 -24.1798C728.602 -24.466 727.173 -24.466 725.743 -25.0383C721.169 -26.469 718.311 -29.9028 714.594 -32.192V-32.7643C714.023 -34.7673 714.023 -34.7673 712.307 -33.6227C710.878 -32.7643 710.021 -32.7643 708.877 -33.6227C708.305 -34.195 708.305 -34.7673 708.02 -35.3396C708.02 -35.3396 708.02 -35.3396 707.734 -35.3396C707.734 -35.3396 707.734 -35.3396 707.448 -35.6258C706.876 -35.6258 706.304 -35.6258 706.018 -36.1981C706.304 -36.1981 706.59 -36.4842 706.59 -36.4842C706.876 -36.1981 707.162 -35.9119 707.448 -35.6258H707.734C708.591 -35.9119 709.449 -36.4842 710.021 -36.7704C710.306 -37.0565 710.592 -37.6288 710.592 -37.915C710.306 -39.6318 709.163 -41.0626 708.02 -42.2072C707.162 -43.0656 705.733 -43.0656 704.589 -43.3518C703.446 -43.3518 703.16 -43.6379 703.446 -44.7825C703.732 -45.641 704.017 -46.4994 703.16 -47.3578C701.159 -49.0747 699.443 -51.0778 697.442 -52.7947C696.013 -54.2254 689.152 -55.9423 686.865 -55.9423C686.294 -55.9423 685.722 -55.9423 685.436 -55.6561C684.293 -55.0839 683.435 -54.7977 682.006 -55.0838C678.861 -55.9423 675.717 -56.2284 672.286 -55.37C671.429 -55.0839 670.571 -54.5116 669.713 -53.9393C668.284 -52.7947 667.712 -51.6501 668.57 -50.2193C669.428 -48.5024 670.571 -47.0717 671.714 -45.3548C672 -44.7825 671.714 -43.6379 671.143 -43.3518C668.284 -42.2072 665.14 -40.7764 662.281 -39.918C660.28 -39.3457 658.279 -39.6318 656.564 -41.0626C655.42 -41.921 655.42 -41.921 653.991 -41.0626C650.56 -38.7734 647.416 -39.6318 646.844 -43.3518C646.844 -43.9241 646.844 -44.2102 646.558 -44.7825C646.272 -45.9271 644.843 -46.7856 643.7 -46.4994C639.697 -45.641 635.981 -45.0687 631.979 -44.2102C630.55 -43.9241 629.12 -43.6379 627.691 -43.0656C626.262 -42.2072 624.832 -41.3487 623.117 -40.4903C621.688 -41.0626 619.973 -41.921 618.543 -42.4933C618.257 -42.4933 618.258 -42.4933 617.972 -42.4933C617.972 -42.2072 617.686 -41.6349 617.686 -41.3487C616.828 -38.7734 613.684 -37.915 611.968 -39.6318C611.397 -40.2041 610.825 -41.0626 610.253 -41.921C609.967 -42.4933 609.396 -43.0656 608.538 -42.7795C607.395 -42.2072 606.251 -41.921 605.108 -42.2072C603.678 -42.4933 602.821 -41.6349 602.249 -40.2041C601.963 -39.6319 601.963 -38.7734 601.963 -38.2011C601.963 -37.0565 602.535 -36.1981 603.392 -35.9119C604.25 -35.6258 605.108 -35.3396 605.965 -35.3396C605.965 -35.3396 605.965 -35.3396 606.251 -35.3396C606.251 -35.6258 606.251 -35.9119 606.537 -36.1981C606.823 -36.4842 607.109 -36.7704 607.395 -37.0565C607.395 -36.7704 607.68 -36.7704 607.395 -36.4842C607.395 -36.1981 607.109 -35.9119 607.109 -35.9119C606.823 -35.6258 606.537 -35.6258 606.251 -35.3396V-35.0535H605.965C605.679 -34.4812 605.679 -33.6227 605.393 -33.3366C603.964 -32.192 603.107 -30.7613 602.249 -29.3305C600.534 -26.469 597.961 -25.3244 594.816 -25.3244C593.673 -25.3244 593.101 -25.6106 593.673 -26.469C594.531 -27.8998 594.531 -29.0444 594.816 -30.4751C594.816 -32.192 597.103 -32.192 597.675 -33.6227C597.961 -34.195 598.533 -35.0535 598.247 -35.6258C597.675 -37.915 598.247 -39.918 599.39 -41.921C599.962 -42.7795 600.248 -43.6379 599.962 -44.7825C599.676 -45.641 599.962 -46.4994 600.248 -47.644C601.391 -49.9332 602.535 -51.9362 603.107 -54.2254C603.678 -56.5146 603.964 -58.8038 604.822 -61.093C605.679 -63.096 605.393 -65.3852 604.536 -67.3882C603.392 -69.6774 601.963 -71.3943 601.391 -73.9696C601.391 -74.2558 601.105 -75.1142 600.534 -75.1142C597.961 -76.2588 596.532 -78.548 594.531 -80.551C593.959 -81.1233 593.101 -81.1233 592.53 -80.551C591.958 -79.9787 592.244 -78.2619 590.814 -79.6926C589.385 -81.4095 587.384 -82.5541 585.383 -83.4125C583.668 -84.271 581.667 -84.8433 579.951 -85.9879C578.236 -87.1324 576.807 -87.4186 575.092 -86.274C572.233 -84.5571 568.803 -83.4125 565.658 -82.2679C565.086 -81.9818 564.515 -81.1233 564.8 -80.551C565.086 -79.9787 565.658 -79.4064 565.944 -78.548C566.516 -77.4034 565.944 -76.2588 564.8 -75.6865C563.371 -74.8281 561.656 -75.4004 561.37 -77.1173C561.084 -78.2619 561.37 -79.4064 561.084 -80.551C561.084 -81.6956 560.798 -82.8402 560.512 -83.9848C560.227 -85.1294 558.797 -85.9879 557.654 -85.7017C556.796 -85.4156 555.653 -85.1294 554.795 -85.1294C553.366 -84.8433 551.936 -85.1294 550.507 -85.7017C549.364 -86.274 548.792 -86.8463 549.078 -87.9909C549.65 -90.2801 547.934 -91.4247 546.505 -92.5693C543.646 -92.2831 541.074 -93.7139 538.501 -94C537.929 -94 537.071 -93.4277 536.5 -93.1416C536.214 -92.8554 535.642 -92.5693 535.642 -91.997C533.641 -87.9909 532.783 -83.6987 533.069 -79.4064C533.355 -76.8311 533.069 -73.6835 536.5 -71.9666C537.929 -71.1081 537.643 -69.3913 537.929 -67.9605C538.501 -66.5298 538.501 -66.2436 537.071 -65.9575C535.356 -65.6713 533.641 -65.9575 531.926 -64.8129C531.068 -64.5267 530.782 -63.9544 531.068 -63.096C531.068 -62.5237 531.64 -61.6653 531.354 -61.093C530.782 -59.6622 529.639 -58.2315 528.781 -56.8007C528.495 -56.5146 527.924 -56.2284 527.638 -55.9423C525.923 -55.37 524.493 -54.7977 522.778 -54.2254C522.492 -54.2254 522.206 -54.5116 522.206 -55.0838C522.492 -55.9423 522.778 -56.8007 523.064 -57.6592C523.35 -58.5176 522.206 -59.3761 521.349 -59.3761C519.634 -59.3761 518.204 -58.8038 517.918 -57.373C517.633 -56.2284 517.347 -55.6561 516.203 -55.6561C515.346 -55.6561 514.202 -55.37 513.344 -55.37C511.629 -55.37 510.772 -54.2254 509.628 -53.0808C508.199 -51.6501 508.199 -51.0778 509.628 -49.3609C510.2 -48.7886 510.2 -47.9301 509.628 -47.644C507.627 -46.4994 505.912 -45.3548 503.911 -44.4964C502.196 -43.6379 500.195 -43.0656 499.051 -41.3487C497.908 -39.918 496.193 -38.7734 495.335 -37.0565C494.763 -35.6258 493.906 -34.4812 492.476 -33.9089C490.475 -33.3366 491.047 -31.0474 489.332 -30.189C488.474 -29.6167 488.188 -28.7582 487.617 -27.8998C486.759 -26.1829 487.331 -24.7521 487.617 -23.0353C487.902 -21.8907 488.474 -21.6045 489.332 -21.0322C491.047 -19.6015 492.762 -18.4569 495.049 -17.5984C497.336 -16.74 499.623 -15.8815 501.338 -13.8785C501.624 -13.5924 501.91 -13.0201 501.624 -12.4478C501.624 -12.1616 501.338 -11.5893 500.766 -11.3032C499.623 -10.7309 499.623 -11.5893 499.337 -12.1616C499.051 -12.7339 498.765 -13.3062 497.622 -13.3062C496.764 -13.3062 495.335 -13.3062 494.763 -12.7339C492.476 -10.7309 489.618 -10.1586 486.759 -9.01399C483.9 -7.8694 481.328 -7.01096 478.183 -6.15251C477.325 -5.86636 476.182 -5.58022 475.324 -5.29407C472.752 -4.43562 471.894 -2.14644 473.323 0.428894C473.895 1.57349 474.467 2.43193 475.324 3.29037C476.468 4.72112 477.325 5.86571 477.611 7.5826C477.897 8.44104 478.183 9.29949 478.755 10.1579C479.326 11.0164 480.184 11.5887 481.042 11.8748C482.757 12.7333 485.044 12.4471 487.045 12.4471C488.76 13.8779 490.189 15.3086 491.905 16.7393C492.19 17.0255 492.762 17.0255 493.334 17.3116C494.477 17.8839 495.621 18.1701 496.764 18.7424C497.622 19.0285 498.479 19.887 498.765 20.7454C499.337 23.893 500.195 26.7545 502.196 29.3299C502.767 29.9022 502.196 30.7606 501.338 31.0468C500.481 31.619 499.623 31.9052 498.765 32.4775C498.765 32.4775 498.765 32.4775 498.765 32.7636C498.765 33.0498 498.479 33.0498 498.479 33.3359C498.479 33.6221 498.479 33.6221 498.479 33.9082C498.479 33.6221 498.765 33.0498 498.765 32.7636C498.479 32.4775 498.479 32.1913 498.194 31.619C496.193 29.0437 495.621 26.4684 497.05 23.6069C497.336 23.3207 497.336 22.7485 497.336 22.1762C497.622 20.7454 495.907 19.3147 494.477 19.3147C493.334 19.3147 491.905 19.6008 490.761 19.887C488.474 20.4593 486.473 20.1731 484.472 18.4562C483.329 17.5978 482.185 16.7393 480.756 15.8809C478.469 14.7363 476.182 13.8779 473.895 13.3056C471.322 12.7333 469.035 11.8748 466.748 11.3025C466.177 11.0164 465.319 11.5887 464.747 11.8748C463.604 12.7333 463.032 14.164 462.746 15.5947C462.746 15.8809 463.032 16.4532 463.604 16.7393C464.176 17.0255 465.033 17.0255 465.891 17.3116C465.891 17.3116 465.891 17.3116 465.605 17.0255L465.891 16.7393V17.3116C466.462 17.5978 466.748 18.1701 467.32 18.4562C467.892 18.7424 468.749 18.7424 469.607 19.0285C470.465 19.3147 470.75 20.7454 470.465 21.3177C470.179 22.1762 469.321 22.4623 468.464 22.1762C467.606 21.89 466.748 21.6039 465.605 21.0316C465.033 20.7454 464.176 20.1731 463.604 20.1731C462.46 20.1731 461.603 20.4593 461.031 21.3177C460.745 21.89 460.459 22.7485 460.459 23.3207C461.889 25.8961 463.604 28.1853 466.748 29.0437C468.464 29.616 470.179 29.9022 471.894 30.1883C472.751 30.1883 473.323 30.4744 473.895 30.7606C474.181 30.7606 474.181 31.0467 474.467 31.3329C474.753 31.9052 474.181 32.1913 473.895 31.9052C472.752 31.3329 471.608 31.0468 470.179 31.0468C467.892 31.3329 465.605 31.0468 463.318 31.0468C461.889 31.0468 461.031 30.4744 460.173 29.3299C459.888 29.0437 459.888 28.4714 459.602 28.1853C457.886 25.8961 456.457 23.3207 456.457 20.4593C456.457 18.1701 455.028 15.8809 453.598 13.8779C453.313 13.3056 452.455 13.0194 451.883 12.4471H451.312C451.026 12.4471 450.74 12.7333 450.74 13.0194C451.312 14.7363 451.883 16.7393 452.455 18.4562C453.027 19.887 452.741 21.3177 451.883 22.4623C451.597 22.7485 451.312 23.3207 451.026 23.6069C449.882 25.0376 449.025 26.4684 449.882 28.1853C450.454 29.9022 449.31 31.619 450.454 33.0498C451.597 34.4805 453.027 35.339 454.17 36.4836C455.028 37.342 455.885 38.2005 457.029 38.7728C458.458 39.9173 459.316 41.3481 459.316 43.065C459.316 45.068 459.316 46.7849 459.602 48.7879C460.173 52.5079 462.46 55.3693 463.89 58.517C464.176 59.3754 465.319 59.6616 466.462 59.6616C468.464 59.6616 470.465 59.0893 471.894 57.3724C473.609 55.3694 475.324 56.2278 477.325 57.0862C477.611 57.0862 477.897 57.3724 477.897 57.6585C477.897 57.9447 477.611 57.9447 477.325 58.2308C475.324 59.6616 473.323 61.0923 471.322 62.5231C469.607 63.9538 469.321 66.8153 470.75 68.246C471.608 69.1045 472.466 69.9629 473.323 70.8213C474.467 72.2521 475.038 73.969 474.181 75.6859C473.323 77.9751 472.752 80.2642 473.037 82.5534C473.037 83.698 472.751 84.8426 471.894 85.9872C470.465 88.2764 468.749 90.2794 468.178 92.8548C468.178 93.1409 467.32 93.427 467.034 93.427C464.175 93.1409 461.031 92.8548 458.172 92.2825C457.601 92.2825 457.029 91.9963 457.029 91.7102C456.743 91.1379 457.029 90.2794 457.029 89.7071C456.457 89.7071 456.457 89.421 456.743 89.1348L457.029 89.421C457.601 89.7071 458.172 89.9933 459.03 90.2794C461.603 91.1379 463.318 90.5656 464.461 88.2764C466.177 83.9842 467.32 79.6919 467.892 75.1136C467.892 74.5413 467.892 73.6828 467.606 73.1105C466.462 71.3936 466.177 69.6768 466.462 67.6737C466.748 66.5291 465.891 65.3845 465.033 64.5261C463.89 63.9538 463.032 63.0954 461.889 62.5231C460.459 61.3785 459.316 60.2339 458.744 58.517C456.743 53.0802 454.742 47.6433 453.027 42.2065C451.883 38.7728 450.168 36.1974 447.309 34.1944C445.88 33.0498 445.022 31.619 445.022 29.9022C445.022 25.0376 444.165 20.4593 443.021 15.8809C442.736 15.0225 442.164 14.164 441.02 13.8779C437.304 12.4471 433.302 11.5887 429.3 13.0194C428.442 13.3056 427.299 12.7333 426.441 13.0194C425.869 13.0194 425.012 13.8779 425.012 14.4502C424.726 15.5947 424.726 16.7393 424.726 17.8839C425.012 21.6039 425.012 25.6099 425.298 29.3299C425.298 31.3329 425.012 33.0498 423.582 34.7667C421.867 36.4836 421.581 38.4866 421.581 40.7758C421.581 42.2065 421.867 43.6373 423.297 44.4957C424.44 45.3542 425.869 46.4987 426.155 47.6433C426.441 49.6464 428.156 51.6494 427.013 53.9386C426.727 54.2247 426.727 55.0832 427.013 55.3693C428.156 57.3724 429.3 59.0893 430.443 60.8062C430.443 61.0923 431.301 60.8062 431.587 60.8062C432.73 60.2339 433.874 59.9477 435.017 61.0923C437.018 63.3815 439.019 65.3845 442.164 66.243C442.45 66.243 442.736 67.1014 442.736 67.3876C442.736 68.5322 442.736 69.6767 442.736 70.8213C442.736 71.6798 441.592 71.9659 441.02 71.6798C439.591 70.8214 438.162 69.9629 436.732 68.8183C435.589 68.246 434.731 67.3876 433.588 66.8153C431.873 65.9568 429.872 65.6707 427.87 64.8122C426.155 64.2399 424.726 63.3815 423.011 62.8092C420.724 63.3815 419.58 61.0923 417.865 60.2339C414.435 58.8031 410.718 57.9447 407.002 58.517C406.43 58.517 406.145 58.8031 405.573 58.8031C401.285 58.8031 396.997 58.2308 393.567 55.3693C391.851 53.9386 389.85 52.794 388.135 51.6494C387.563 51.3633 386.42 51.6494 386.134 52.2217C386.134 52.5079 385.848 52.5079 385.848 52.794C385.276 54.797 385.848 56.5139 387.563 57.9447C389.564 59.3754 392.423 59.3754 393.852 61.6646C394.138 61.9508 394.71 61.9507 395.282 62.2369C396.425 62.523 397.283 62.8092 397.855 63.6676C399.284 65.3845 400.713 67.1014 402.143 68.8183C402.714 69.6768 402.714 70.8213 401.857 71.3936C400.427 72.5382 398.426 73.3967 398.14 75.3997L397.569 75.6859C397.283 75.3997 396.711 75.1136 396.425 74.8274C396.139 73.969 396.139 73.1105 395.568 72.2521C394.996 71.1075 393.567 70.5352 392.423 70.8213C390.708 71.6798 388.993 72.8244 386.992 72.5382C386.706 72.5382 386.42 72.8244 386.42 72.8244C385.562 74.5413 384.133 75.1136 382.132 75.1136C380.417 75.1136 378.416 75.6859 377.272 76.8305C375.843 78.5473 373.842 78.8335 372.412 79.6919C371.841 79.9781 370.983 79.6919 370.411 79.9781C370.411 79.4058 370.411 79.1196 370.411 78.5473C370.697 76.5443 370.125 74.8274 368.696 73.6828C366.981 73.6828 365.837 73.969 365.266 75.6859C365.266 75.972 364.694 76.5443 364.408 76.5443C362.979 76.5443 362.407 77.9751 361.549 78.5473C360.406 79.1196 359.263 79.1196 357.833 79.4058C356.118 79.6919 354.689 80.8365 353.545 82.2673C350.687 85.4149 348.114 88.2764 344.398 90.5656C343.54 91.1379 342.968 91.9963 342.968 92.8548C342.682 93.9994 342.682 95.1439 342.396 96.2885C342.396 96.5747 341.825 97.147 341.539 97.4331C339.538 99.4362 335.536 99.4362 334.106 98.0054C333.249 96.8608 332.105 96.0024 330.962 94.8578C330.104 93.9993 330.104 92.5686 330.962 91.7102C332.105 90.8517 333.535 89.9933 334.678 89.421C335.536 88.8487 335.536 87.7041 334.964 86.8456C334.106 85.701 332.963 84.8426 332.105 83.698C330.39 81.4088 328.103 80.5504 325.53 81.1227C323.529 81.4088 321.528 81.4088 319.527 81.1227C319.241 81.1227 318.955 81.4088 318.955 81.4088C318.67 81.695 318.67 82.2673 318.955 82.5534C322.672 85.1288 323.529 88.5625 322.958 92.5686C322.958 93.427 322.672 94.5716 322.672 95.4301C322.672 96.2885 322.958 97.4331 324.101 97.7193C326.102 98.5777 326.388 100.008 326.674 101.725C326.674 102.584 326.674 103.728 326.388 104.587C326.388 105.445 325.244 106.304 324.387 106.304C322.958 106.018 321.528 105.731 320.099 105.445C318.098 104.873 316.097 105.159 314.953 106.876C314.382 107.734 313.238 108.593 312.38 109.451C310.951 110.31 309.808 111.741 308.95 113.171C306.663 116.033 305.234 117.177 309.236 121.183C309.522 121.47 309.808 122.042 310.094 122.328C310.665 123.186 310.094 124.045 309.522 124.903C308.95 125.762 307.807 126.334 306.949 125.762C303.519 124.045 299.231 123.186 296.086 120.897C295.514 120.611 294.657 120.325 294.085 120.325C293.513 120.039 292.37 120.611 292.37 121.183C292.084 122.042 291.512 122.9 291.226 123.759C290.94 124.617 291.226 125.762 291.798 126.334C293.227 128.051 294.943 129.482 297.515 129.482C298.087 129.482 298.373 129.768 298.945 130.054C299.802 130.34 299.802 131.199 299.802 131.771C299.802 132.915 298.373 134.06 297.23 133.774C294.657 133.488 292.37 133.202 290.655 130.912C289.797 129.768 288.082 129.482 286.652 129.196C285.509 128.909 284.937 128.337 284.651 127.193C284.08 125.189 283.508 123.186 282.079 121.183C281.221 120.039 281.221 118.608 281.507 117.177C282.079 113.744 280.935 111.741 277.505 110.596C276.075 110.024 274.932 109.451 273.789 108.307C268.929 102.87 264.641 102.011 276.647 106.304C282.079 108.307 287.51 109.737 293.227 110.596C297.515 111.168 301.803 110.596 305.806 109.165C306.377 108.879 307.235 108.593 307.807 108.021C310.094 105.445 312.095 102.87 312.38 99.15C312.38 98.2916 312.38 97.147 311.809 96.2885C310.379 94.2855 309.236 91.7102 306.377 90.5656C305.234 89.9933 304.376 89.1348 303.519 88.2764C302.375 87.4179 301.232 86.8456 299.802 86.5595C297.515 86.2733 295.228 85.1288 293.227 83.4119C291.226 81.9811 289.225 80.5504 286.938 79.4058C280.649 75.972 278.934 75.3997 272.073 75.3997C271.216 75.3997 270.072 75.6859 269.215 75.6859C268.071 75.6859 266.642 75.3997 265.498 75.3997C264.355 75.1136 264.927 74.5413 265.213 73.6828C265.498 72.8244 265.213 72.2521 264.641 71.6798C263.783 71.1075 262.926 70.8214 262.068 70.2491C261.21 69.6768 260.067 69.9629 259.209 70.5352C258.066 71.6798 256.922 72.2521 255.207 71.6798C253.778 71.1075 252.349 71.3936 250.919 71.6798C250.347 71.6798 249.49 71.3936 248.918 70.8213C248.632 70.5352 248.346 69.9629 248.346 69.6768C248.346 69.1045 248.632 68.8183 249.204 68.8183C250.347 68.8183 251.777 68.5322 252.634 67.6737C253.492 66.8153 254.635 66.243 255.493 65.3845C256.065 65.0984 255.779 63.9538 255.207 63.6676C252.063 61.9507 248.346 60.8062 244.916 59.6616C244.344 59.3754 243.487 59.9477 242.915 60.52C242.629 60.8062 242.343 61.3785 242.057 61.6646C241.771 62.2369 241.486 62.2369 240.914 61.9507C240.628 61.6646 240.628 61.6646 240.628 61.3784C240.628 60.8062 240.628 59.9477 240.628 59.3754C240.628 58.2308 239.77 57.0862 238.627 56.8001C237.483 56.5139 236.626 56.8001 235.768 57.6585C234.911 58.2308 234.339 59.0893 234.339 59.9477C234.339 60.52 234.053 61.3784 233.767 61.9507C233.481 62.2369 232.91 62.5231 232.624 62.5231C232.624 62.5231 232.052 62.2369 232.052 61.9507C231.766 60.8062 231.48 59.6616 229.765 59.9477C228.907 59.9477 228.908 59.0893 228.622 58.517C228.05 56.8001 226.621 56.5139 226.049 57.3724C224.619 59.0893 222.047 59.3754 220.903 61.0923C218.902 61.3785 217.473 63.0953 215.758 63.6676C215.472 63.6676 215.472 63.6676 215.186 63.6676C215.186 63.6676 215.186 63.6676 215.186 63.9538L214.9 64.2399L215.186 63.6676C215.186 63.3815 215.186 62.8092 215.186 62.5231C214.9 62.5231 214.9 62.523 214.614 62.2369C211.47 62.2369 211.184 62.5231 211.756 65.3845C211.756 65.6707 212.041 66.243 212.041 66.5291C212.041 66.5291 212.041 66.5291 212.327 66.5291L212.613 66.8153L212.041 66.5291C212.041 66.5291 212.041 66.5291 212.041 66.243C208.897 65.9568 206.61 67.6737 203.751 68.8183C203.465 68.8183 203.465 69.6768 203.465 70.2491C203.465 70.8214 204.037 71.6798 203.751 72.2521C203.465 73.1105 202.608 72.5382 201.75 72.8244C200.607 73.1105 199.463 73.3967 198.32 73.969H198.606C198.606 73.969 198.606 73.969 198.32 73.969C198.32 73.3967 198.606 72.5382 198.32 71.9659C198.32 71.1075 197.462 70.8213 196.605 70.8213C196.319 70.8213 195.747 71.3936 195.747 71.6798C196.033 72.5382 196.319 73.3967 196.89 74.2551C196.89 74.2551 196.89 74.2551 196.605 74.2551H196.89C194.604 74.2551 193.174 75.1136 192.317 76.8305C192.031 76.5443 192.888 77.6889 192.031 77.1166C192.031 77.1166 192.031 77.1166 192.031 76.8305C191.173 76.8305 190.601 76.8305 189.744 76.8305C188.314 76.8305 187.457 77.4028 186.885 78.8335C186.313 80.2642 186.313 81.695 187.743 82.5534C188.029 82.8396 188.6 83.1257 188.886 83.4119C189.458 83.9842 189.172 84.8426 188.6 85.1288C187.743 85.701 187.171 86.2733 186.028 85.9872C184.884 85.4149 183.741 85.701 182.311 85.9872C181.454 85.9872 180.882 85.4149 181.168 84.5565C181.454 83.4119 182.025 82.2673 182.597 81.1227C182.597 81.1227 182.311 80.8365 182.311 80.5504C182.025 80.5504 181.74 80.5504 181.74 80.5504C180.024 82.2673 178.309 83.9842 176.594 85.701C176.022 86.2733 176.594 87.1318 176.88 87.7041C177.737 88.5625 177.452 89.421 176.594 90.2794C176.308 90.5656 176.022 90.8517 176.022 91.424C176.88 91.424 177.737 91.424 178.595 91.424C180.31 91.1379 182.025 90.5656 183.741 90.2794C184.598 90.2794 185.742 90.5656 186.599 90.5656C186.885 90.5656 186.885 90.8517 187.171 90.8517C186.885 91.1379 186.885 91.1379 186.599 91.424C185.742 91.9963 184.884 92.2825 184.026 92.8548C183.455 93.1409 183.169 93.1409 182.597 93.1409C181.168 93.427 181.168 94.2855 181.454 95.1439C180.596 95.7162 179.738 96.0024 179.453 96.8608C179.167 97.7193 179.453 98.5777 179.453 99.7223C179.167 102.298 173.449 107.734 173.164 108.593C172.878 110.024 171.734 111.168 171.448 112.599C171.448 113.744 171.162 114.888 169.733 115.46C168.876 115.747 168.59 116.319 168.876 117.177C169.161 118.608 169.447 120.039 168.876 121.47C168.304 122.9 168.304 124.331 168.018 125.476C168.018 126.048 157.441 136.063 156.297 138.925C156.012 139.497 155.726 140.355 155.44 140.928C154.868 141.786 154.01 142.358 152.867 142.358C152.009 142.358 150.866 142.072 150.008 142.072C149.722 142.072 149.437 142.358 149.437 142.358C149.151 142.645 149.151 143.217 149.437 143.789C149.723 144.075 149.722 144.075 150.008 144.361C150.294 144.934 150.294 146.078 149.723 146.078C147.436 146.364 146.006 148.654 143.719 148.367C142.29 149.512 140.575 150.657 139.145 151.801C138.86 151.801 138.86 152.374 139.145 152.374C139.431 154.09 138.574 154.377 137.144 154.663C136.287 154.949 135.143 154.949 134.286 155.521C133.714 155.807 133.142 156.38 132.856 156.952C132.571 157.81 132.856 158.955 132.571 159.813C131.999 162.389 133.142 164.964 131.999 167.539C131.999 167.826 131.999 168.112 132.285 168.112C132.856 169.829 134.286 171.259 135.143 172.976C135.715 174.121 136.287 174.979 136.573 176.124C136.859 176.696 136.573 177.555 136.001 178.127C135.429 178.985 134.572 179.558 134 180.416C133.714 180.988 134 182.133 134.572 182.419C135.143 182.705 136.001 182.991 136.573 183.278C137.43 183.564 137.716 184.422 137.144 184.994C136.573 185.853 135.715 186.425 135.143 187.284C134.572 187.856 134.857 189.573 135.429 189.859C138.002 192.148 140.861 193.865 144.291 195.01C144.863 195.296 145.434 195.296 145.72 195.296C148.865 194.437 152.009 193.865 154.01 191.004C154.868 189.859 155.726 188.714 156.869 187.856C158.87 186.425 161.443 186.139 162.586 183.564H163.158C164.016 184.136 164.873 184.708 165.159 185.567C165.731 186.997 165.445 188.428 166.017 189.573C166.589 191.29 167.446 192.72 167.732 194.151C168.018 197.013 169.447 199.016 170.591 201.305C171.734 203.308 172.878 205.597 174.593 207.314C175.165 207.886 174.879 208.745 174.593 209.317C174.307 209.889 174.307 210.462 174.021 211.32C174.021 211.32 174.021 211.32 174.307 211.32C174.307 211.606 174.307 211.606 174.307 211.892C174.593 212.465 175.165 212.751 175.45 213.323C177.166 218.188 178.023 216.757 182.311 216.185C183.455 216.185 184.026 215.326 184.312 214.182C184.598 212.465 185.742 211.892 187.457 211.606C188.314 211.606 188.886 211.32 189.744 211.32C191.745 211.32 193.746 211.034 194.604 209.031C198.034 209.603 197.748 207.028 198.32 205.025C198.32 204.453 198.32 204.166 198.32 203.594C198.32 202.736 197.748 202.449 196.89 202.736C196.605 202.736 196.319 202.736 196.033 202.736C195.747 202.736 195.747 202.45 195.747 202.163C195.747 199.874 195.461 197.299 196.319 195.01C196.605 193.865 196.89 192.72 196.89 191.576C196.89 189.287 198.034 188.142 199.749 186.997C200.893 186.139 202.322 185.567 203.465 184.708C204.895 183.564 205.752 182.133 205.466 180.416C205.466 179.558 205.752 178.699 205.752 177.555C205.752 176.982 205.466 176.124 205.181 175.552C203.465 173.262 201.75 170.973 198.892 169.829C197.462 169.256 196.605 167.826 196.605 166.395C196.605 162.675 196.605 158.669 196.89 154.949C196.89 154.377 197.176 153.518 197.748 152.946C199.749 149.798 202.036 146.651 205.466 144.648C207.182 143.503 208.611 142.358 210.04 140.928C212.899 138.352 212.899 138.352 214.614 134.632C215.186 133.488 215.186 132.343 214.9 131.199C214.328 128.337 214.9 125.189 216.044 122.9C217.187 120.611 218.902 118.894 222.047 119.467C225.763 118.894 228.908 119.467 232.338 121.183C233.195 121.756 233.767 123.759 232.91 124.331C231.766 124.903 230.909 125.476 230.909 126.906C230.909 127.765 230.337 128.623 229.765 129.482C227.478 132.915 225.191 136.349 222.333 139.497C221.475 140.355 220.617 141.214 220.332 142.358C219.76 144.075 218.616 144.361 216.901 144.361C216.043 144.361 215.472 144.934 215.472 145.506C215.758 146.651 215.472 147.795 215.186 148.94C214.9 149.798 214.9 150.943 215.186 151.801C215.472 152.66 215.758 153.518 216.044 154.377C216.901 158.097 218.045 161.816 217.473 165.536C217.473 166.109 217.473 166.967 217.759 167.539C218.045 168.684 218.616 169.829 219.76 170.115C220.617 170.401 221.475 170.973 222.333 171.546C222.333 171.546 222.333 171.546 222.047 171.546L222.618 171.259L223.476 172.976C224.048 173.262 224.619 173.835 225.191 173.835C226.906 173.549 228.05 174.407 228.908 175.552C229.765 176.982 231.194 177.268 232.91 176.696C234.339 176.41 235.768 175.552 236.912 174.979C241.486 172.976 246.059 171.546 251.205 171.546C252.92 171.546 254.635 171.259 256.351 170.973C256.922 170.973 257.494 170.973 257.78 171.259C258.638 173.549 261.21 172.976 262.64 173.835C262.926 173.835 263.211 174.121 263.211 174.121L263.497 174.693C262.64 175.265 261.782 175.838 260.925 176.124C259.495 176.696 258.066 177.268 257.208 178.413C255.493 180.988 253.492 180.988 250.919 180.13C249.204 179.558 247.489 179.272 245.774 178.985C244.916 178.985 244.344 178.699 243.487 178.985C241.2 179.558 238.627 180.416 236.34 181.275C233.767 182.133 232.052 183.85 232.052 186.425C232.052 187.856 230.909 188.428 229.765 189.001C228.907 189.287 227.764 189.287 226.906 189.573C224.905 190.145 224.619 191.576 226.049 193.579L226.335 193.865C228.622 193.865 229.765 192.434 231.48 191.29C232.624 190.431 232.91 190.431 234.053 191.29C234.911 191.862 235.482 192.434 236.34 193.007C237.198 193.293 237.483 193.865 237.769 194.724C237.769 196.727 237.769 198.443 237.769 200.446C237.769 201.591 236.912 202.163 236.054 202.449C235.482 202.736 234.625 202.449 234.053 201.877C232.91 201.019 232.052 199.874 231.194 198.73C230.051 197.585 229.479 197.299 228.05 197.871C226.049 198.443 224.334 199.588 223.762 201.591C223.19 203.022 222.618 204.166 222.047 205.597C221.475 207.314 221.189 209.317 221.475 211.32C222.047 213.609 222.333 215.898 222.618 218.474C222.618 218.76 222.333 219.332 222.047 219.618C220.903 220.191 219.76 220.477 218.616 221.049C217.473 221.621 216.615 222.194 216.615 223.624C216.329 225.914 211.756 226.2 210.326 224.483C210.04 224.197 209.754 223.624 209.469 223.338C208.897 222.194 207.753 221.621 206.324 221.908C203.751 222.194 201.464 222.766 199.177 223.911C196.319 225.628 193.174 227.344 190.03 228.775C188.886 229.347 188.314 230.492 187.171 231.064C186.599 231.35 185.456 231.637 185.17 231.35C183.741 230.206 182.597 229.061 181.74 227.917C181.454 227.344 181.74 226.486 181.74 225.914C181.74 225.341 180.596 224.769 180.024 225.341C178.881 226.2 177.737 227.058 176.022 227.058C173.735 227.344 172.02 228.775 170.019 229.634C169.733 229.92 168.876 229.634 168.59 229.347C167.732 228.489 167.16 227.631 165.731 227.344C164.588 227.058 163.158 227.058 162.301 226.2C161.443 225.341 161.157 224.197 160.585 223.052C160.585 222.766 160.585 222.194 160.871 221.908C160.871 221.908 161.443 221.621 161.443 221.908C163.444 222.766 165.731 223.052 167.446 224.483C169.447 226.2 171.734 225.341 172.878 223.052C174.593 220.191 175.45 217.043 174.879 213.895L174.593 213.609C174.593 213.609 174.593 213.609 174.593 213.323C172.02 213.037 170.019 214.468 168.018 216.185C167.446 216.757 167.16 217.901 167.732 218.76C168.304 219.618 168.876 220.191 169.447 221.049C169.733 221.335 169.447 222.194 169.161 222.194C168.876 222.48 168.304 222.194 167.732 222.194C167.446 222.194 167.16 221.908 167.16 221.908C165.445 220.477 164.873 218.188 162.586 217.329C162.301 217.329 162.301 216.471 162.586 216.185C162.872 214.468 163.73 213.037 165.445 212.465C166.017 212.179 166.017 211.606 165.445 211.32C165.159 211.034 165.159 211.034 164.873 210.748C162.301 209.603 162.015 207.6 162.872 205.311C163.444 204.166 163.73 203.022 163.444 201.877C163.444 201.305 162.586 200.446 162.015 200.733C161.443 200.733 160.871 200.733 160.585 201.019C157.727 202.45 155.726 205.025 152.581 206.169C152.295 206.169 152.009 207.028 152.009 207.314C152.009 210.176 150.008 212.751 151.152 215.612C151.438 215.898 150.866 216.471 150.866 217.043C150.58 217.902 150.866 218.76 151.438 219.618C152.009 220.191 152.581 220.763 152.581 221.335C153.153 224.197 154.296 227.344 154.582 230.206C154.582 231.923 152.295 234.212 150.866 233.926C148.865 233.353 146.864 233.64 145.149 234.498C143.719 235.357 142.004 235.929 140.289 236.215C138.002 236.501 136.001 237.932 134 238.79C131.999 239.649 130.855 241.079 130.284 243.083C128.283 249.378 128.283 249.378 122.851 253.384C121.708 254.242 120.278 254.815 119.135 255.673C118.563 255.959 117.991 256.531 117.705 257.39C117.42 258.248 117.134 259.107 116.848 260.251C116.276 261.682 115.419 262.541 113.703 263.113C112.846 263.399 112.274 263.399 111.416 263.685C110.273 263.971 109.129 264.83 108.558 265.974C107.7 267.405 106.271 267.691 104.556 267.405C103.126 267.405 102.269 266.547 101.125 265.974C100.553 265.688 99.6959 265.688 99.1242 265.402C98.5524 265.402 97.409 266.261 97.6948 266.833C97.9807 268.264 98.5524 269.694 98.8383 270.839C99.1242 271.697 98.2666 272.556 97.1231 272.556C95.4079 272.556 93.6927 272.556 91.9775 271.984C91.1199 271.697 89.9764 271.411 89.1188 271.697C87.1178 271.984 85.4026 272.842 83.4015 273.414C82.8298 273.7 82.258 274.559 82.258 275.131C82.5439 277.42 82.8298 279.996 86.546 279.996C87.9754 279.996 89.4047 281.14 90.834 281.426C93.4068 281.999 94.8362 283.429 95.6938 285.432C96.5514 287.722 97.6948 289.152 99.6959 290.297C101.125 291.155 101.697 292.3 101.697 294.017C101.411 297.737 101.411 301.457 100.839 305.463C100.839 306.894 100.268 308.324 99.6959 309.469C99.41 310.613 97.409 312.044 95.9796 311.472C93.4068 310.327 90.5482 311.758 87.9754 310.613C87.4036 310.327 86.546 310.327 85.6884 310.613C83.1156 311.472 80.8287 311.186 78.2559 310.327C75.6831 309.469 72.8245 309.183 70.2517 309.755C69.6799 310.041 68.8223 310.041 67.9647 309.755C64.8202 308.61 62.2474 308.61 59.9605 311.472C59.6746 312.044 58.5311 312.044 57.9594 312.044C57.3877 312.33 57.1018 312.33 56.5301 312.617C55.6725 312.903 55.1007 314.333 55.3866 314.906C56.8159 317.195 57.6735 319.77 56.8159 322.346C56.8159 322.632 56.8159 322.918 57.1018 322.918C58.2453 328.355 57.1018 333.219 54.8149 338.084C54.2431 339.228 53.6714 340.659 53.0997 342.09C52.8138 342.948 52.8138 344.093 53.3855 344.951C55.6725 347.527 56.5301 350.102 56.2442 353.536C56.2442 354.108 56.2442 354.394 56.5301 354.966C56.8159 355.253 57.1018 356.111 57.3877 356.111C59.3887 356.683 61.1039 357.542 63.105 356.97C63.9626 356.683 65.1061 356.683 65.9637 356.683C67.393 356.683 68.5365 357.256 69.1082 358.114C70.2517 359.545 70.8234 360.976 71.9669 362.406C73.1103 363.837 75.1114 364.409 76.5407 363.551C77.6842 362.979 78.8277 362.406 79.6852 361.548C82.258 359.831 85.1167 359.259 88.2612 359.259C90.5482 359.545 92.8351 358.973 95.122 358.973C96.5514 358.973 97.409 358.4 98.2666 357.256C99.1242 356.111 100.268 355.253 101.697 354.68C103.126 354.108 104.27 353.25 104.841 351.819C105.413 349.816 106.557 347.813 108.272 346.382C109.129 345.524 109.415 344.665 108.844 343.807C105.985 340.373 107.414 337.798 109.987 334.936C110.559 334.364 111.416 333.505 111.988 332.647C113.989 330.644 115.704 328.069 119.135 327.782C122.565 326.352 125.138 324.349 125.138 320.343C125.138 318.912 125.424 317.481 125.71 316.05C125.71 315.478 125.996 314.62 126.281 314.047C126.853 312.33 129.14 310.9 130.855 311.186C134.286 311.758 137.716 311.758 140.861 313.761C142.29 314.62 144.005 314.333 144.863 313.189C146.864 310.9 149.151 309.183 152.009 308.324C152.867 308.038 153.725 307.18 154.296 306.607C156.012 304.604 158.013 304.604 160.3 305.463C162.586 306.321 164.302 307.466 165.159 309.469C166.017 311.186 166.874 312.903 167.732 314.62C170.877 317.195 174.021 319.77 176.594 322.918C178.595 325.207 181.168 326.924 184.026 327.496C187.743 328.355 190.03 330.93 192.888 332.647C193.746 334.364 195.461 335.508 197.176 336.367C197.748 336.653 198.32 337.225 198.606 337.798C199.463 339.514 200.035 341.231 200.607 343.234C200.607 343.521 200.607 344.093 200.607 344.665C199.749 346.668 199.177 348.385 196.319 348.957C191.745 349.816 187.457 350.674 182.883 350.102C182.311 350.102 181.454 350.388 180.882 350.674C180.596 350.96 180.31 351.247 180.024 351.819C180.024 352.105 180.024 352.963 180.31 353.25C181.74 354.108 183.169 354.966 184.884 355.825C188.029 357.256 191.173 358.686 194.318 360.403C194.889 360.689 196.033 360.117 196.319 359.545C196.605 358.973 196.89 358.114 196.89 357.542C196.89 356.683 196.605 355.539 196.605 354.68C196.605 353.25 197.748 352.105 199.463 352.105C201.178 352.105 202.322 351.819 203.18 350.388C204.323 348.385 205.466 346.382 206.896 344.093C207.753 342.662 207.468 341.231 206.61 340.087C206.324 339.514 205.466 338.942 205.466 338.37C205.181 337.511 205.466 336.367 205.752 335.508C206.038 334.078 208.039 333.505 209.469 334.078C210.612 334.936 211.756 335.795 212.899 336.653C213.185 336.939 214.042 336.653 214.042 336.367C215.186 335.222 214.9 333.219 213.757 332.647C209.754 330.644 206.61 327.21 202.036 326.066C200.607 325.779 200.321 324.635 200.035 323.49C200.035 323.204 199.463 322.632 199.177 322.346C198.32 322.059 197.176 321.773 196.319 321.773C193.746 321.773 192.031 320.629 190.601 318.912C189.458 317.767 188.314 316.336 187.457 314.906C186.313 312.044 184.026 310.327 181.74 308.324C180.882 307.466 179.738 306.894 178.595 306.321C177.452 305.463 176.88 304.032 176.88 302.601C176.88 301.457 177.166 300.312 177.166 299.168C177.166 298.309 177.737 297.737 178.309 297.451C179.453 296.878 180.596 296.592 181.74 296.02C182.025 296.02 182.883 296.306 182.883 296.592C183.169 297.737 183.455 298.881 183.741 300.026C184.026 300.884 184.884 302.029 186.028 301.743C187.743 301.171 188.6 302.888 190.316 302.601C191.459 302.315 192.317 303.174 192.602 304.032C193.46 307.18 196.033 309.183 198.892 310.9C201.178 312.33 203.18 314.047 206.038 314.333C207.182 315.192 208.325 316.336 209.754 316.623C211.756 316.909 212.899 318.053 214.042 319.198C215.472 320.629 216.615 322.059 218.045 323.49C218.902 324.349 219.188 324.921 218.902 326.066C218.902 327.496 218.902 328.927 218.902 330.358C218.616 332.933 219.188 335.222 221.475 336.653C221.761 336.653 221.761 337.225 221.761 337.225C221.189 339.228 222.618 340.087 224.048 341.231C225.191 342.09 226.335 343.234 227.192 344.093C227.478 346.096 230.051 347.24 230.051 349.53C230.623 350.102 230.623 350.388 230.051 350.96C230.051 351.533 230.051 352.105 230.051 352.391C232.052 353.822 233.767 355.253 234.339 357.828C234.339 358.4 235.197 358.973 235.768 359.259C237.483 360.117 239.485 360.403 241.486 360.403C242.343 360.403 243.201 359.831 242.629 358.973C241.486 356.683 244.058 355.253 244.058 352.963L244.63 352.677C246.631 353.25 247.775 351.819 249.49 351.247C250.062 351.247 250.062 350.674 250.062 350.102C249.49 348.385 248.918 346.382 246.917 345.524C246.059 344.951 244.916 344.665 244.344 343.807C242.343 341.231 240.628 338.656 238.913 336.081C238.627 335.795 238.627 335.222 238.627 334.65C238.627 334.364 238.627 334.078 238.913 334.078C239.199 333.505 239.77 333.505 240.056 333.792C240.342 334.078 240.628 334.364 241.2 334.65C243.487 336.367 245.488 335.795 246.345 333.505C246.631 332.647 246.917 331.788 247.489 330.93C247.775 330.644 248.346 330.358 248.632 330.358C249.49 330.644 250.633 330.93 251.491 330.358C252.634 329.213 254.35 329.499 255.779 329.499C257.78 329.785 259.495 331.502 259.495 333.219C259.495 336.081 259.495 338.942 258.638 341.804C258.352 342.376 259.209 343.234 260.067 343.234C260.925 343.234 261.496 343.234 262.354 343.234C262.64 343.234 262.926 343.234 263.211 343.234C263.497 343.234 263.783 343.521 263.783 343.807C263.783 344.379 263.783 344.665 263.783 345.237C262.926 346.668 261.21 346.382 259.781 347.24C259.495 347.24 259.209 347.527 259.209 347.813C258.923 348.385 259.209 348.671 259.781 348.957C260.639 349.53 261.496 349.816 262.354 350.388C262.926 350.674 263.783 350.96 264.355 351.533C265.213 352.391 263.211 353.25 264.069 353.822C265.213 354.68 266.642 355.539 267.214 356.683C267.785 358.114 269.215 358.686 270.358 359.831C271.216 360.403 272.073 360.689 273.217 360.403C275.504 359.831 277.219 360.403 278.362 362.12C278.934 362.692 279.506 362.979 280.078 363.265C280.363 363.551 280.935 363.837 281.507 363.551C284.08 363.265 286.652 363.265 288.368 360.976C289.511 359.259 291.226 359.259 292.942 359.831C294.657 360.117 296.372 360.976 297.515 362.12C299.516 364.123 301.803 364.123 304.376 363.551C307.235 362.979 309.522 361.834 311.237 359.831C311.809 359.259 312.952 358.686 314.096 359.259C316.097 359.831 317.812 359.831 319.813 359.831C319.813 359.831 319.813 359.831 319.813 359.545L320.099 359.259V359.545C320.099 359.545 320.099 359.545 319.813 359.545C318.955 362.12 319.241 364.696 319.527 366.985C320.099 369.274 319.813 371.849 319.241 374.138C318.67 375.855 318.098 377.858 317.526 379.575C316.668 382.151 315.239 384.44 314.953 387.015C314.667 389.304 313.238 391.307 311.523 393.31C310.951 394.169 310.094 394.741 308.95 394.741C305.234 394.741 301.518 395.313 297.801 393.883C296.372 393.31 294.943 393.31 293.513 393.31C290.083 393.024 286.938 393.883 284.08 395.6C282.65 396.458 281.221 396.458 279.792 396.172C274.36 395.027 269.215 393.596 263.497 393.024C261.496 392.738 259.209 392.452 257.78 391.593C255.207 390.163 252.634 389.877 250.062 389.304C247.775 389.018 245.774 388.16 244.058 386.443C243.487 385.87 242.343 385.298 241.486 385.012C237.198 384.154 232.91 384.154 228.908 386.157C226.335 387.301 224.048 391.021 224.905 393.883C225.191 394.741 225.477 395.599 225.763 396.458C226.049 397.316 225.763 398.461 224.905 399.033C224.334 399.606 224.048 400.178 223.476 400.75C222.047 401.895 220.046 402.181 218.616 401.322C217.759 400.75 216.901 400.178 216.044 399.606C214.9 398.747 213.471 397.889 212.327 397.316C209.183 395.6 206.038 394.455 202.322 394.455C200.607 394.455 199.463 393.596 198.892 392.166C198.606 391.307 198.034 390.449 197.748 389.59C197.176 388.16 196.033 387.301 194.604 386.729C190.316 385.298 186.028 383.867 181.454 384.44C178.881 384.726 176.594 383.581 174.307 382.723C174.021 382.723 173.735 382.437 173.735 382.437C172.02 380.434 169.733 379.575 167.446 379.003C166.303 378.717 166.017 376.714 166.589 375.855C167.732 374.711 168.876 373.852 169.733 372.708C171.162 370.991 171.162 369.274 170.591 367.271C170.019 366.126 169.161 365.268 168.59 364.409C168.304 364.123 168.304 363.551 168.304 362.979C168.876 361.548 169.447 360.403 170.019 358.973C170.305 358.4 169.733 357.542 168.876 357.828C167.732 358.114 166.303 358.114 165.445 357.256C164.016 355.539 162.015 355.539 160.014 356.111C158.013 356.683 156.297 357.256 154.296 357.828C153.153 358.114 151.724 358.114 150.58 358.114C148.579 356.683 146.578 358.686 144.863 357.828C142.576 356.683 141.147 358.4 139.145 358.686C137.716 358.973 136.287 358.973 134.572 358.686C130.855 358.114 127.139 358.4 123.423 359.545C121.422 360.117 119.421 360.117 117.42 360.117C115.704 360.117 113.989 360.689 112.274 361.262C109.701 362.693 106.843 363.837 104.27 364.982C102.269 365.84 100.268 366.699 98.5524 368.129C96.5514 369.846 93.9786 370.132 91.4058 369.274C89.4047 368.415 87.6895 368.129 85.6884 368.415C83.6874 368.702 81.6863 368.702 79.6852 368.415C78.8277 368.415 77.97 367.843 77.1124 367.271C76.8266 366.985 76.5407 366.699 75.969 366.126C73.9679 364.123 71.9669 364.695 71.1093 367.271C70.5375 368.702 69.9658 369.846 69.6799 371.277C69.1082 374.711 66.8213 376.714 63.6767 378.144C61.1039 379.575 58.5311 381.006 55.9583 382.723C53.6714 384.154 51.3845 385.584 51.3845 388.732C51.3845 389.877 50.5269 391.021 49.6693 391.88C48.5258 393.596 47.9541 395.313 47.9541 397.316C48.2399 398.747 48.2399 400.178 48.2399 401.609C48.2399 402.753 47.9541 403.898 47.0965 405.042C45.953 406.473 45.0954 407.904 43.952 409.048C43.3802 409.907 42.5226 410.479 41.665 411.052C40.5216 411.91 39.0922 412.482 37.9488 413.341C36.2336 414.485 34.5184 415.344 32.5173 415.63C30.5162 415.916 29.3728 417.061 28.2293 418.491C27.6576 419.35 27.0858 419.922 26.5141 420.781C25.6565 422.497 24.2272 423.928 22.512 424.787C20.5109 425.931 19.3674 427.648 18.224 429.651C16.2229 433.085 14.7936 436.519 11.6491 439.094C11.0773 439.666 10.5056 440.525 9.93386 441.383C8.21866 445.103 6.21759 448.823 3.93066 451.971C2.7872 453.401 2.50133 455.118 2.50133 456.549C2.21546 458.552 2.7872 460.269 4.78826 461.414C6.50346 462.272 7.07519 463.989 6.50346 465.706C5.93173 467.423 5.93173 468.853 6.50346 470.57C7.93279 474.863 8.21866 478.869 5.93173 483.161C5.64586 483.447 5.64586 484.019 5.64586 484.592C4.78826 488.884 3.6448 492.89 0.2144 496.038C-0.0714666 496.324 -0.0714666 496.896 0.2144 497.468C1.072 498.613 1.9296 499.757 2.7872 500.902C3.6448 502.047 4.21653 503.477 3.35893 504.908C2.21546 507.197 3.07306 509.2 3.93066 511.203C4.78826 512.92 6.21759 513.779 7.64692 514.637C9.07626 515.209 10.5056 515.496 11.9349 516.068C11.9349 516.068 11.9349 516.068 11.9349 515.782L12.2208 515.496L11.9349 516.068C11.9349 517.499 12.5067 518.643 13.936 519.502C15.3653 520.36 16.2229 521.219 16.5088 522.649C16.7946 523.508 17.6522 524.366 18.5098 524.652C20.5109 525.511 22.2261 526.942 23.6554 528.658C24.2272 529.231 25.0848 530.375 25.0848 531.234C25.0848 534.381 26.8 536.671 28.2293 539.246C29.6586 541.821 31.9456 543.824 34.8042 544.969C36.8053 545.827 38.8064 546.972 40.5216 548.403C44.5237 551.55 48.5258 554.698 53.0997 557.273C55.3866 558.418 57.6735 559.276 59.9605 560.135C60.5322 560.421 61.3898 560.135 62.2474 560.135C63.9626 559.562 65.3919 558.704 67.1071 558.132C69.9658 556.987 72.8244 556.129 75.6831 556.129C77.6842 556.129 79.6852 555.842 81.6863 555.556C84.8308 554.984 87.6895 555.27 90.2623 556.701C90.834 556.987 91.6916 557.273 92.5492 557.273C93.9786 557.559 95.4079 557.559 96.8372 557.273C98.5524 556.701 100.268 556.415 101.697 555.556C103.126 554.984 104.556 554.698 105.699 553.839C107.7 552.695 109.701 551.836 111.702 551.264C113.989 550.692 115.99 549.547 117.991 549.261C121.136 548.975 124.28 547.544 127.711 548.116C128.568 548.116 129.14 548.117 129.998 548.403C132.856 549.547 135.143 551.264 136.573 554.126C137.144 555.556 137.716 556.701 138.288 558.132C139.431 560.421 141.718 561.565 144.291 561.565C145.149 561.565 145.72 561.565 146.578 561.565C149.723 560.993 153.153 560.707 156.297 559.849C158.298 559.562 159.728 559.276 160.871 561.279C161.443 562.138 162.301 562.71 162.872 563.282C165.445 564.999 165.731 567.575 166.017 570.15C166.017 571.867 165.445 573.584 164.873 575.014C164.302 576.445 163.158 577.59 162.872 579.021C162.586 580.451 163.158 582.454 162.586 583.885C162.015 586.46 161.729 589.036 159.442 591.039C159.156 591.325 159.156 591.897 159.156 592.469C159.156 592.756 159.156 593.042 159.442 593.042C162.586 600.768 164.016 602.485 170.305 608.208C171.448 609.066 172.592 610.211 173.735 611.069C175.736 612.5 177.166 614.503 178.023 616.792C178.595 617.937 178.881 619.081 179.167 620.226C180.024 623.087 181.168 625.377 182.883 627.952C184.884 630.813 184.884 634.247 185.742 637.395C186.028 637.967 185.17 638.825 185.17 639.398C185.17 640.256 184.884 641.401 185.17 642.259C185.742 644.262 186.028 646.551 187.171 648.268C187.743 649.127 188.314 649.985 188.314 650.844C189.172 654.85 189.172 658.57 185.742 661.431C184.026 662.576 183.169 664.293 181.74 665.723C180.31 667.154 179.453 668.871 179.167 670.874C178.881 674.022 177.737 676.883 176.308 679.745C175.45 681.175 175.165 682.892 175.165 684.609C175.165 687.471 175.165 690.332 175.165 693.194C175.165 694.624 175.45 696.055 176.594 697.2C179.453 700.061 181.454 703.209 182.597 706.929C184.026 710.649 186.028 714.369 187.743 718.088C189.172 720.664 190.316 723.239 190.03 726.101C190.03 729.248 190.601 732.11 191.745 735.257C192.031 736.402 192.602 737.547 192.602 738.691C192.602 742.125 193.746 745.273 194.318 748.42C195.175 752.14 196.89 755.002 199.177 757.863C200.321 759.294 201.464 761.011 202.894 762.441C204.323 763.872 204.895 765.589 205.466 767.592C206.324 771.312 207.468 775.032 209.469 778.466C210.04 779.324 210.326 780.183 210.612 781.041C211.47 783.044 211.756 785.333 209.754 787.05C209.183 787.909 208.897 788.767 209.469 789.625C210.898 791.342 210.898 793.632 211.184 795.635C211.184 796.207 211.47 796.779 211.756 796.779C214.328 798.21 216.901 799.641 219.76 800.785C220.331 801.071 221.475 801.071 222.047 800.785C224.62 799.641 226.906 798.496 230.051 798.782C231.194 798.782 232.624 798.496 233.767 797.924C235.768 797.065 238.055 796.779 240.342 796.779C242.915 796.779 245.202 795.921 247.775 797.065C248.346 797.352 249.49 797.638 250.062 797.352C252.349 796.207 255.207 797.638 256.922 795.348C257.208 794.776 258.352 794.776 258.923 794.776C262.64 794.776 265.498 793.059 268.643 791.342C272.931 788.767 276.361 785.333 280.078 781.9C282.65 779.896 284.651 777.607 286.367 775.032C288.082 772.457 290.369 770.167 292.084 767.592C292.942 766.161 294.085 764.731 295.514 763.872C298.659 762.155 300.374 759.008 301.518 755.86C302.375 753.571 302.947 751.282 303.519 748.992C303.804 747.848 303.805 746.703 303.233 745.559C302.375 744.128 303.233 742.697 304.376 741.839C306.091 740.408 307.807 739.263 310.094 738.691C312.666 738.119 314.953 737.547 316.954 736.116C318.67 734.971 320.099 733.541 320.099 731.537C320.099 729.248 320.671 726.959 321.242 724.384C321.528 723.239 321.528 722.095 320.956 720.95C319.813 717.23 318.955 713.51 317.812 710.076C317.526 708.932 317.526 707.501 318.67 706.643C324.101 702.636 329.532 698.058 334.678 693.766C336.107 692.621 338.108 691.763 339.824 691.191C341.825 690.332 343.826 689.188 345.827 688.329C350.115 686.04 352.973 682.606 354.975 678.314C355.832 676.311 356.404 674.308 355.832 672.019C355.546 670.016 355.832 667.726 355.832 665.723C355.832 664.006 356.118 662.29 355.832 660.859C355.26 657.997 355.546 655.136 356.118 652.274C356.404 650.844 355.832 649.413 354.403 648.555C351.83 647.124 350.972 644.835 350.115 642.259C348.971 639.112 349.543 635.678 348.971 632.53C348.971 631.958 349.257 631.099 349.543 630.527C350.401 629.096 350.401 627.666 348.971 626.521C346.399 624.518 345.827 622.515 347.256 619.654C348.4 617.364 348.971 615.361 350.972 613.358C353.259 611.355 353.545 608.208 355.26 605.918C356.118 604.774 356.69 603.629 358.119 602.771C360.692 601.626 362.693 599.623 364.122 597.62C368.41 591.897 373.556 587.319 378.987 582.454C382.132 579.593 384.991 576.731 388.993 575.301C389.564 575.014 389.85 574.728 390.136 574.442C399.57 567.288 407.002 558.99 411.862 548.403C413.577 544.397 415.292 540.391 418.151 537.243C420.152 534.954 421.01 532.378 421.867 529.517C423.011 525.797 422.725 522.077 423.011 518.357C423.011 517.499 421.01 516.354 420.152 516.64C419.866 516.64 419.58 516.64 419.58 516.926C416.722 519.216 413.291 519.788 409.861 520.36C405.001 521.219 399.856 521.219 395.282 523.222C394.71 523.508 393.852 523.508 392.995 523.508C390.136 523.222 387.563 524.08 384.991 525.511C384.419 525.797 383.561 526.083 382.989 526.369C381.846 526.655 380.988 526.369 380.131 526.083C379.559 525.797 378.987 525.225 378.416 524.652C376.7 522.935 374.985 521.219 372.984 519.502C372.412 518.929 372.412 518.357 372.984 517.785C374.413 515.209 374.413 514.351 372.412 512.92C370.983 511.776 369.84 510.631 368.696 509.486C366.409 506.625 363.551 504.336 360.978 501.76C359.548 500.33 357.547 499.185 355.26 498.327C351.544 496.61 348.685 494.321 347.542 490.028C346.97 488.025 346.399 486.022 345.541 484.019C344.969 482.016 343.54 480.299 341.539 478.869C339.824 477.724 338.394 476.579 336.679 475.435C335.536 474.576 334.678 473.146 334.678 471.715C334.392 467.709 333.249 463.703 332.391 459.697C331.534 455.977 329.247 453.401 325.816 451.398C325.244 451.112 324.387 450.826 323.815 450.54C323.243 449.968 322.958 449.395 322.672 448.823C322.386 448.251 322.1 447.392 322.386 446.82C322.672 444.245 321.814 442.242 320.099 440.239C319.241 439.38 318.955 438.236 318.098 437.091C315.239 432.799 312.095 428.507 310.665 423.07C310.379 422.211 309.808 421.353 309.236 420.494C308.95 419.636 309.236 419.064 310.379 419.064C311.237 419.064 312.38 419.35 313.238 418.491C314.096 417.919 314.667 417.061 315.811 417.061C317.24 417.061 318.098 417.919 318.955 418.778C319.527 419.636 320.099 420.208 320.671 421.067C323.529 424.5 325.53 428.22 328.103 431.654C329.818 433.657 330.962 435.66 331.248 437.949C331.534 439.38 332.677 440.525 334.106 441.097C337.251 441.956 339.252 443.958 340.395 446.82C340.681 447.678 341.253 448.537 341.825 449.395C342.682 450.826 343.254 452.543 342.968 454.26C342.968 454.832 342.968 455.691 342.968 456.549C343.254 460.269 345.255 463.417 348.4 465.42C349.543 466.278 350.972 466.85 352.116 467.709C354.117 469.14 355.832 470.857 356.404 473.432C357.262 476.293 358.977 478.582 360.978 480.586C362.693 482.302 364.408 484.019 365.837 486.022C367.553 488.312 368.696 491.173 368.124 494.034C367.839 494.893 367.839 496.037 368.124 496.896C369.84 500.044 370.125 503.764 371.555 507.197C372.127 508.628 372.698 509.773 373.27 511.203C373.842 512.348 374.985 512.92 376.415 512.92C377.558 512.92 378.987 512.634 380.131 512.634C381.846 512.634 383.561 512.062 384.705 510.631C386.134 508.628 388.421 508.342 390.708 508.628C393.567 508.914 396.139 508.342 398.712 506.911C400.141 505.767 401.857 505.48 403.572 505.194C405.001 504.908 406.43 504.336 407.574 503.191C408.717 501.76 410.433 501.188 412.148 500.616C414.721 499.757 417.579 499.185 420.152 498.327C422.153 497.468 424.154 496.61 426.155 495.751C427.013 495.465 427.871 494.607 428.156 493.748C428.728 491.459 430.443 490.028 432.73 489.456C435.875 488.598 439.019 487.739 442.164 487.167C444.451 486.881 445.88 486.022 446.452 483.733C446.738 482.589 447.595 481.444 449.025 481.444C451.883 481.158 453.598 479.727 454.456 477.152C454.742 476.007 456.171 475.435 457.315 474.863C458.172 474.576 459.316 474.576 460.173 474.004C460.745 473.718 461.317 472.86 461.317 472.287C461.603 470.857 461.317 469.426 461.317 467.995C461.317 466.85 461.889 465.706 463.032 465.133C466.748 462.844 469.035 459.411 471.036 455.977C472.466 453.688 471.894 452.543 469.893 450.254C468.464 448.823 467.32 447.392 466.177 445.962C465.319 444.531 464.176 443.958 462.46 443.672C460.459 443.386 458.458 443.386 456.457 442.814C455.314 442.528 454.17 441.956 453.313 441.097C451.597 439.38 450.168 437.377 449.882 434.802C449.596 432.799 449.31 430.51 449.025 428.507C449.025 428.22 448.739 427.934 448.739 427.934C448.167 427.934 447.595 427.934 447.309 428.22C444.451 431.082 441.306 433.943 439.019 437.377C437.304 439.952 434.731 441.383 431.587 441.097C429.014 440.811 426.727 441.097 424.154 441.956C423.297 442.242 422.153 441.669 421.581 441.097C420.724 440.239 419.866 439.38 419.866 437.949C419.58 435.66 419.58 433.085 419.294 430.796C419.294 430.223 419.009 429.937 418.723 429.651C418.437 429.365 417.865 428.793 417.579 428.793C417.293 428.793 416.436 429.079 416.436 429.365C415.864 430.223 415.578 431.082 415.007 431.94C414.435 433.085 413.577 433.085 412.72 431.94C411.862 430.796 411.004 429.651 410.719 428.22C410.433 425.645 409.003 423.642 407.288 421.925C406.145 420.781 404.715 419.636 403.572 418.491C403 417.919 402.142 417.633 401.857 417.061C400.427 414.485 398.998 412.196 397.569 409.621C397.283 409.048 397.283 408.19 397.283 407.618C397.283 406.759 397.569 405.615 397.855 404.756C397.855 404.47 398.426 403.898 398.998 403.898C400.427 403.612 401.857 403.325 403.286 403.612C404.715 403.612 406.43 403.612 407.574 404.47C408.432 405.042 409.003 406.187 409.861 407.332C411.862 410.193 413.577 413.055 415.292 415.916C416.15 417.347 417.293 417.919 418.723 418.491C419.58 418.778 420.152 418.778 421.01 419.064C422.725 419.35 424.154 419.922 425.584 421.639C426.441 422.497 427.585 423.07 428.442 423.642C431.301 425.359 434.445 425.931 437.59 426.503C439.019 426.79 440.163 426.79 441.306 425.931C443.021 425.073 444.737 424.214 446.738 423.356C449.025 422.497 450.74 423.356 451.883 425.073C452.741 426.503 453.313 428.22 453.884 429.651C454.456 431.082 455.885 431.654 457.315 431.94C464.461 432.513 471.036 433.943 478.183 435.088C480.756 435.374 483.043 435.66 485.615 435.374C489.903 434.802 493.906 433.657 498.194 434.516C499.051 434.802 500.195 434.229 501.052 433.943C503.911 433.085 507.055 433.085 509.914 433.371C511.058 433.371 511.915 433.943 512.201 434.802C512.773 435.66 513.344 436.519 514.202 436.805C515.346 437.377 516.203 438.236 516.489 439.666C517.061 441.956 518.49 443.386 521.063 443.672C522.778 443.958 524.207 445.103 525.351 446.534C527.352 449.109 529.925 449.968 533.069 450.254C533.641 450.254 534.499 450.254 535.07 450.254H534.784C533.641 451.971 532.212 452.829 529.925 451.971C529.639 451.971 528.781 452.257 528.781 452.543C528.495 452.829 528.495 453.688 528.781 453.688C531.068 455.977 533.069 458.266 535.356 460.269C539.644 463.989 541.645 463.989 546.505 461.127C548.506 459.983 549.65 458.552 549.935 456.263V455.977L550.221 456.263C550.221 456.263 550.221 456.263 550.221 456.549C550.507 456.549 550.793 456.835 550.793 456.835C551.937 459.983 553.366 463.13 553.08 466.564C553.08 467.995 552.794 469.426 553.366 470.856C554.795 474.29 555.081 477.724 556.224 481.158C557.082 484.592 559.369 487.739 559.369 491.459C559.369 492.031 559.941 492.89 560.227 493.462C561.37 495.465 562.514 497.754 563.943 499.757C565.658 502.047 566.802 504.908 567.659 507.483C568.231 508.914 568.803 510.059 569.088 511.49C569.946 514.351 571.09 516.64 573.376 518.929C574.52 520.074 575.663 521.505 576.235 522.935C577.664 526.369 579.665 529.231 579.951 532.951C580.237 535.24 581.381 536.957 582.81 538.674C583.382 539.532 584.239 540.104 584.811 540.677C586.526 542.107 589.385 541.821 590.814 539.818C591.1 539.246 591.672 538.674 591.958 537.815C592.529 536.671 593.387 535.812 594.531 535.526C596.246 534.954 596.817 533.809 597.103 532.378C597.675 530.661 598.819 528.945 600.82 528.086C601.963 527.514 602.535 526.369 602.249 524.938C602.249 523.794 601.963 522.649 601.677 521.505C601.391 520.074 601.391 518.643 601.963 517.213C602.535 516.354 602.821 515.496 603.107 514.637C603.964 512.634 604.25 510.631 603.107 508.342C602.535 507.197 602.535 506.053 602.535 504.908C602.535 502.333 602.535 499.757 602.535 497.182C602.535 495.465 603.392 494.607 605.108 494.321C605.679 494.321 606.823 494.035 607.109 493.462C608.538 491.459 610.539 490.887 612.54 490.028C613.398 489.742 613.969 488.884 614.541 488.025C614.827 486.881 615.113 485.45 616.256 484.878C619.401 483.161 621.402 480.299 624.261 478.296C625.404 477.438 626.262 476.293 627.119 475.149C627.977 473.718 629.406 472.573 630.264 471.143C631.121 470.284 631.979 469.712 633.123 469.14C637.125 467.423 639.983 464.561 640.269 459.983C640.269 458.838 641.413 457.98 642.556 457.408C644.271 456.549 646.272 456.263 648.273 456.263C652.847 456.549 657.135 455.404 661.137 452.829C662.853 451.685 665.14 451.971 666.569 450.54C666.569 450.54 667.712 450.826 667.712 451.112C668.284 452.543 668.57 453.688 669.142 455.118C670.571 459.697 673.144 463.703 678.289 465.992C678.861 466.278 679.719 466.564 680.29 466.85C681.434 467.423 681.72 468.281 681.148 469.712C680.576 472.001 680.862 472.573 683.149 473.432C684.578 474.004 685.722 474.863 686.58 476.007C686.58 476.293 686.865 476.293 686.865 476.579C688.295 479.727 689.152 482.875 688.009 486.308C687.723 487.453 687.723 488.598 688.009 489.742C688.009 490.601 689.438 492.031 690.582 492.031C693.44 492.031 696.013 491.745 698.586 490.028C700.301 488.884 702.302 487.739 704.303 486.595C704.589 486.308 705.447 486.308 705.733 486.595C707.162 488.025 709.163 488.884 709.449 490.887C709.735 492.604 710.306 494.034 710.878 495.751C712.307 499.758 712.879 504.05 715.738 507.77C716.31 508.628 716.596 509.486 716.881 510.345C717.167 511.203 717.167 512.348 717.453 513.206C718.597 516.64 718.597 520.074 717.739 523.794C717.453 524.652 717.167 525.797 717.453 526.655C718.311 529.231 717.739 531.806 716.881 534.381C715.738 537.243 716.31 539.532 719.454 540.677C719.74 540.677 720.026 540.963 720.026 540.963C722.885 544.397 726.029 548.117 728.888 551.55C730.317 553.267 730.031 555.556 730.317 557.846C730.317 558.418 730.603 558.704 730.889 559.276C731.746 560.421 731.746 561.852 731.746 563.282C731.746 564.713 732.318 566.144 733.462 567.288C735.177 568.719 736.606 570.436 737.178 572.439C737.178 573.011 738.035 573.584 738.607 574.156C739.465 574.728 740.322 575.301 740.894 575.873C742.038 577.876 744.039 578.734 746.326 579.593C748.898 580.737 751.185 581.882 753.758 583.313L753.472 583.599C753.758 583.599 753.758 583.599 754.044 583.599C754.044 583.599 753.758 583.599 753.758 583.313C754.33 583.027 754.616 582.454 755.187 582.168C756.045 581.596 756.331 580.737 756.045 579.593C755.187 577.59 754.616 575.587 753.186 573.87C751.471 571.867 750.899 569.578 750.899 567.288C750.899 565.858 750.899 564.427 750.899 562.996C750.899 561.279 750.328 559.562 749.47 558.418C747.469 556.129 745.468 554.412 743.467 552.409C740.322 551.264 738.607 548.689 735.463 547.544C733.462 546.686 732.032 544.969 732.032 542.393C732.032 540.963 731.461 539.532 730.317 538.674C728.602 537.243 728.03 535.24 726.887 533.237C724.6 532.951 723.456 531.52 723.17 529.517C722.885 528.086 722.885 526.655 723.456 525.225C725.172 520.074 727.173 514.923 727.458 509.2C727.458 508.914 727.744 508.628 727.744 508.628C728.03 508.342 728.602 508.056 728.888 508.056C729.459 508.056 730.031 508.056 730.317 508.342C730.603 508.628 730.889 509.2 731.175 509.486C731.461 512.062 733.176 513.206 735.749 513.206C736.606 513.206 737.464 513.206 738.035 513.493C740.608 515.209 743.753 516.354 745.182 519.502C746.897 522.935 750.328 525.225 753.186 527.8C753.758 527.514 754.902 526.942 755.187 526.942C756.617 527.8 758.332 528.372 758.046 530.661C758.046 532.664 758.046 534.381 758.046 536.384C758.046 536.957 759.475 537.243 760.047 536.957C760.333 536.957 760.619 536.671 760.619 536.671C763.477 534.095 766.336 531.52 769.195 528.658C770.052 528.086 770.624 527.228 771.482 526.942C775.484 526.083 778.057 523.794 780.915 521.219C782.631 519.788 783.488 517.785 784.06 515.782C784.918 512.348 785.489 509.2 784.06 506.053C784.06 505.767 784.06 505.48 784.06 505.48C783.488 501.188 781.773 497.182 779.772 493.462C778.914 492.031 777.771 490.601 776.627 489.456C774.055 486.881 771.196 485.164 768.337 483.447C766.336 482.302 764.621 480.872 764.335 478.583C764.049 477.438 763.192 476.579 762.048 475.721C761.191 475.149 760.619 474.576 759.761 473.718C759.475 473.432 758.904 472.859 758.904 472.573C758.904 469.998 758.046 467.423 760.619 465.42C761.762 464.561 762.62 463.13 762.62 461.7C762.906 460.841 763.192 459.983 764.335 459.411C767.194 457.98 770.052 456.263 772.911 455.118C773.483 454.832 774.34 454.832 775.198 454.832C776.056 454.832 776.627 455.404 777.199 455.404C778.914 455.691 780.344 456.549 780.63 458.552C780.915 459.983 781.773 461.127 783.202 461.986C784.346 462.844 786.347 462.272 786.633 460.841C786.633 460.269 786.633 459.411 786.633 458.838L786.919 459.124V458.838L786.633 459.124C786.347 458.838 786.061 458.552 786.061 457.98C786.061 457.694 786.633 457.121 786.919 457.121C790.349 456.549 793.494 454.832 796.638 453.688C799.497 452.829 802.069 451.112 803.499 448.537C803.785 447.678 804.642 447.678 805.214 448.251C806.072 448.823 806.929 449.395 808.073 448.823C810.074 447.965 812.361 447.392 814.362 447.106C816.077 446.82 817.792 446.248 819.221 445.675C820.937 445.103 822.366 444.245 822.938 442.528C823.224 441.669 823.795 441.669 824.653 441.097C833.229 435.374 837.231 429.365 837.803 420.781C837.803 419.636 837.231 418.778 838.946 417.919C841.233 416.774 842.377 414.485 842.663 412.196C842.948 410.765 843.234 409.335 844.664 408.476C846.379 407.332 846.951 405.615 846.951 403.612C846.951 402.467 847.236 401.322 847.808 400.178C849.237 398.175 848.094 396.458 846.951 395.027C846.093 394.169 845.235 393.31 844.092 392.738C843.234 392.166 842.377 392.166 841.519 392.166H840.947L841.233 391.88C841.233 391.88 841.233 391.88 841.519 391.88C841.519 391.307 841.519 390.449 842.091 390.163C842.948 389.304 843.806 388.732 844.664 387.874C845.521 387.301 845.521 386.157 844.949 385.298C844.092 383.867 842.663 383.009 841.519 381.864C841.519 381.864 841.519 381.864 841.233 381.864L840.947 381.578L841.519 381.864C842.091 381.864 842.377 381.864 842.663 381.578C844.378 380.72 844.664 379.289 843.52 378.144C842.662 377.286 841.805 376.428 840.947 375.855C837.517 374.138 834.944 368.129 833.229 364.696C832.371 363.265 831.228 361.834 829.799 361.262C828.941 360.976 828.083 360.403 827.226 359.831C825.225 358.686 824.653 357.256 824.653 354.966C824.653 353.536 824.939 352.105 825.796 350.96C826.654 350.102 827.512 348.957 827.797 348.099C828.655 346.096 830.37 344.665 832.371 343.521C834.372 342.376 836.373 341.517 838.66 341.517C839.518 341.517 839.804 340.659 840.09 340.087C840.376 339.514 840.376 338.656 840.376 338.084C840.376 336.939 839.232 335.508 838.089 335.508C836.945 335.508 835.516 335.508 834.372 335.508C833.515 335.508 832.371 335.508 831.514 335.222C830.656 334.936 829.799 334.364 828.941 333.792C828.083 333.219 826.94 333.505 826.082 334.078C824.367 334.936 823.224 336.653 821.794 338.084C821.223 338.656 820.651 338.942 819.793 338.942C818.65 339.228 817.22 338.656 816.649 337.511C815.791 335.795 814.933 334.364 812.647 333.505C810.36 332.933 808.93 331.216 807.501 329.499C806.357 328.069 807.215 325.207 809.216 324.921C810.074 324.921 810.646 324.921 811.503 324.635C813.218 324.635 814.362 323.776 814.933 322.346C815.791 319.484 816.077 316.623 819.507 315.478C820.365 315.192 820.651 314.047 821.223 313.189C822.08 312.044 822.652 310.613 823.509 309.469C823.795 308.897 824.653 308.611 825.225 308.324C827.226 307.752 828.655 308.897 829.799 310.041C830.942 311.186 830.37 312.33 829.799 313.189C829.513 313.475 829.227 314.047 829.227 314.333C828.369 315.764 828.083 317.481 828.941 319.198C829.227 319.77 829.513 320.629 829.799 321.201C830.37 322.346 829.513 322.918 828.941 323.49C828.655 323.776 828.655 324.062 828.655 324.062C828.655 324.349 828.655 324.921 828.941 325.207C829.227 325.493 829.799 325.493 830.37 325.493C832.085 324.921 833.229 323.776 834.372 322.346C836.945 318.626 840.947 317.481 845.235 316.623C845.807 316.623 846.665 316.909 847.236 316.909C848.094 317.195 848.666 317.481 849.523 317.481C852.668 318.34 852.668 318.34 852.382 321.201C852.382 323.49 852.382 326.066 852.382 328.355C852.382 329.499 852.954 330.644 853.811 331.502C854.383 332.361 855.241 332.647 856.384 332.361C857.242 332.075 857.813 331.788 858.671 331.788C860.1 331.502 861.244 331.788 862.101 332.647C862.959 333.505 863.817 334.364 864.674 335.222C865.532 336.081 865.246 336.653 864.103 338.084C863.245 339.228 862.959 339.801 863.817 340.659C866.675 343.234 867.247 346.382 866.961 349.816C866.961 350.674 866.675 351.819 866.675 352.677C866.675 354.68 868.105 356.111 868.962 357.828L869.534 358.114C870.963 357.828 871.821 357.256 872.679 356.397C874.108 355.253 875.537 354.394 877.538 354.68C878.396 354.68 878.968 354.68 879.825 354.68C881.54 354.966 882.684 353.822 883.541 352.677C885.542 350.388 886.114 347.527 884.971 344.665C884.399 343.234 884.113 341.804 883.827 340.659C882.112 335.222 882.112 334.936 878.11 330.93C876.681 329.213 874.965 327.782 874.108 325.779C873.25 324.062 871.821 322.632 870.106 321.773C868.962 320.915 867.533 320.056 866.389 319.198C865.246 318.339 864.674 316.05 865.532 314.62C866.104 313.761 866.675 312.903 867.533 312.33C868.962 311.472 870.106 310.041 871.249 308.897C874.108 305.749 875.251 302.601 873.822 298.595C872.678 295.734 873.822 292.872 876.109 290.869C876.966 290.297 877.538 289.725 878.396 288.866C878.968 288.294 879.825 287.436 880.397 286.863C881.254 285.719 881.255 284.002 882.97 283.429C884.971 282.571 886.114 284.86 887.544 285.432C889.259 286.005 890.974 286.291 892.689 285.432C894.404 284.574 895.834 283.716 896.977 282.571C898.978 280.282 900.408 277.706 901.551 275.131C903.266 270.839 905.839 267.119 906.697 262.541C906.982 261.682 907.268 260.538 907.84 259.965C910.985 256.245 911.27 251.667 911.556 247.089C911.842 243.369 913.557 239.649 913.557 235.929C913.557 235.357 913.843 234.498 914.129 233.926C915.844 231.637 915.273 229.061 914.987 226.2C914.415 221.335 912.986 216.757 910.413 212.751C909.269 211.034 908.698 209.317 908.698 207.314C908.698 203.308 908.412 199.302 908.412 195.296C908.412 195.01 908.698 194.437 908.983 194.151C909.269 194.151 909.555 194.437 909.555 194.437C911.27 196.727 912.986 198.443 914.987 200.446C916.988 202.45 916.416 205.311 917.845 207.886C918.417 209.031 918.989 209.889 919.561 211.034C920.99 213.609 921.847 216.185 922.133 219.332C922.133 219.905 922.133 220.191 922.419 220.763C923.277 223.911 923.563 227.344 926.135 229.92C927.279 231.064 927.851 233.067 927.851 234.498C928.137 237.073 928.708 239.076 929.852 241.366C930.709 242.796 930.995 244.513 930.995 246.23C930.995 246.802 930.995 247.661 931.281 248.233C931.853 249.95 932.71 251.381 934.426 251.953C934.712 251.953 935.569 251.667 935.569 251.667C935.569 250.809 935.569 249.664 935.569 248.806C935.569 247.375 936.427 246.802 937.856 247.089C939.571 247.375 940.429 248.519 941.858 249.092C942.144 249.092 942.43 249.092 942.43 249.092C942.716 248.805 943.002 248.233 943.002 247.947C942.716 246.23 942.144 244.513 940.429 243.655C937.284 242.224 936.427 238.79 933.854 237.073C932.996 235.357 932.139 233.64 931.567 231.637C930.995 229.347 930.709 227.058 930.423 224.483C930.423 223.911 930.423 223.052 930.423 222.48C933.854 213.323 943.002 219.332 938.714 212.465Z" fill="white"/>
<path d="M495 30H1029V723H495V30Z" fill="white"/>
<path d="M265 402H976V723H265V402Z" fill="white"/>
</svg>
