<svg aria-hidden="true" style="position: absolute; width: 0; height: 0; overflow: hidden;" version="1.1" xmlns="http://www.w3.org/2000/svg" xmlns:xlink="http://www.w3.org/1999/xlink">
<defs>
<symbol id="icon-menu-close" viewBox="0 0 17 10">
<path d="M1.11412 9.2307C1.3985 9.50889 1.78319 9.66504 2.18417 9.66504C2.58515 9.66504 2.96984 9.50889 3.25422 9.2307L8.70311 3.94324L14.0761 9.2307C14.3605 9.50889 14.7452 9.66504 15.1462 9.66504C15.5471 9.66504 15.9318 9.50889 16.2162 9.2307C16.3585 9.09185 16.4714 8.92665 16.5484 8.74464C16.6255 8.56263 16.6652 8.3674 16.6652 8.17022C16.6652 7.97305 16.6255 7.77782 16.5484 7.59581C16.4714 7.41379 16.3585 7.2486 16.2162 7.10974L9.78074 0.776742C9.63964 0.636746 9.47177 0.525629 9.28682 0.449799C9.10186 0.373969 8.90347 0.334928 8.70311 0.334928C8.50274 0.334928 8.30436 0.373969 8.1194 0.449799C7.93444 0.525629 7.76657 0.636746 7.62547 0.776742L1.11412 7.10974C0.971863 7.2486 0.858949 7.41379 0.781892 7.59581C0.704836 7.77782 0.665162 7.97305 0.665162 8.17022C0.665162 8.3674 0.704836 8.56263 0.781892 8.74464C0.858949 8.92665 0.971863 9.09185 1.11412 9.2307Z" fill="#FCFCFC"/>
</symbol>
<symbol id="icon-menu-open" viewBox="0 0 17 10">
<path d="M16.2162 0.769298C15.9318 0.491108 15.5471 0.334961 15.1462 0.334961C14.7452 0.334961 14.3605 0.491108 14.0761 0.769298L8.62722 6.05676L3.25422 0.769298C2.96984 0.491108 2.58515 0.334961 2.18417 0.334961C1.78319 0.334961 1.3985 0.491108 1.11412 0.769298C0.971862 0.908151 0.858946 1.07335 0.78189 1.25536C0.704833 1.43737 0.665161 1.6326 0.665161 1.82978C0.665161 2.02695 0.704833 2.22218 0.78189 2.40419C0.858946 2.58621 0.971862 2.7514 1.11412 2.89026L7.54958 9.22326C7.69068 9.36325 7.85855 9.47437 8.04351 9.5502C8.22846 9.62603 8.42685 9.66507 8.62722 9.66507C8.82758 9.66507 9.02597 9.62603 9.21092 9.5502C9.39588 9.47437 9.56375 9.36325 9.70485 9.22326L16.2162 2.89026C16.3585 2.7514 16.4714 2.58621 16.5484 2.40419C16.6255 2.22218 16.6652 2.02695 16.6652 1.82978C16.6652 1.6326 16.6255 1.43737 16.5484 1.25536C16.4714 1.07335 16.3585 0.908151 16.2162 0.769298Z" fill="#FCFCFC"/>
</symbol>
<symbol id="icon-arrow-left" viewBox="0 0 32 32">
<path d="M25.131 0.898c0.556 0.569 0.869 1.338 0.869 2.14s-0.312 1.571-0.869 2.14l-10.575 10.898 10.575 10.746c0.556 0.569 0.869 1.338 0.869 2.14s-0.312 1.571-0.869 2.14c-0.278 0.285-0.608 0.51-0.972 0.665s-0.754 0.233-1.149 0.233-0.785-0.079-1.149-0.233c-0.364-0.154-0.694-0.38-0.972-0.665l-12.666-12.871c-0.28-0.282-0.502-0.618-0.654-0.988s-0.23-0.767-0.23-1.167c0-0.401 0.078-0.798 0.23-1.167s0.374-0.706 0.654-0.988l12.666-13.023c0.278-0.285 0.608-0.51 0.972-0.664s0.754-0.233 1.149-0.233c0.394 0 0.785 0.079 1.149 0.233s0.694 0.38 0.972 0.664z"></path>
</symbol>
<symbol id="icon-arrow-right" viewBox="0 0 32 32">
<path d="M6.869 0.898c-0.556 0.569-0.869 1.338-0.869 2.14s0.312 1.571 0.869 2.14l10.575 10.898-10.575 10.746c-0.556 0.569-0.869 1.338-0.869 2.14s0.312 1.571 0.869 2.14c0.278 0.285 0.608 0.51 0.972 0.665s0.754 0.233 1.149 0.233 0.785-0.079 1.149-0.233c0.364-0.154 0.694-0.38 0.972-0.665l12.666-12.871c0.28-0.282 0.502-0.618 0.654-0.988s0.23-0.767 0.23-1.167c0-0.401-0.078-0.798-0.23-1.167s-0.374-0.706-0.654-0.988l-12.666-13.023c-0.278-0.285-0.608-0.51-0.972-0.664s-0.754-0.233-1.149-0.233c-0.394 0-0.785 0.079-1.149 0.233s-0.694 0.38-0.972 0.664z"></path>
</symbol>
<symbol id="icon-facebook" viewBox="0 0 32 32">
<path d="M18.529 17.852v12.92h-5.71v-12.963h-4.71v-5.276h4.71v-4.13c0-2.316 0.69-4.108 1.902-5.322s2.952-1.853 5.062-1.853c1.012 0 2.049 0.090 2.832 0.181 0.392 0.045 0.72 0.090 0.95 0.124 0.115 0.017 0.206 0.031 0.268 0.041l0.059 0.010v4.485h-2.296c-1.162 0-1.931 0.361-2.409 0.913-0.477 0.551-0.658 1.287-0.658 2.027v3.523h5.138l-0.81 5.276h-4.329v0.043z"></path>
</symbol>
<symbol id="icon-instagram" viewBox="0 0 32 32">
<path d="M29.211 21.67c-0.104 2.078-0.579 3.918-2.095 5.434-1.516 1.522-3.357 1.996-5.434 2.095l7.529-7.529zM29.211 21.67c0.122-2.141 0.122-8.553 0-10.694v10.694zM29.168 10.978v0c0.121 2.14 0.121 8.55 0 10.689v0c-0.104 2.072-0.577 3.9-2.082 5.405v0c-1.506 1.511-3.333 1.984-5.405 2.082h-0.001c-2.14 0.121-8.556 0.121-10.695 0h-0c-2.072-0.104-3.894-0.577-5.406-2.082s-1.984-3.333-2.082-5.405l-0-0.001c-0.121-2.14-0.121-8.556 0-10.695l0-0c0.104-2.072 0.571-3.9 2.082-5.405s3.339-1.978 5.405-2.076l0-0c2.14-0.121 8.556-0.121 10.695 0l0 0c2.072 0.104 3.9 0.577 5.405 2.082v0c1.511 1.505 1.984 3.333 2.082 5.405zM23.996 26.473h0c1.151-0.462 2.034-1.344 2.489-2.489 0.342-0.859 0.472-2.306 0.517-3.768 0.033-1.047 0.022-2.107 0.013-2.971-0.004-0.343-0.007-0.655-0.007-0.923s0.003-0.58 0.007-0.922c0.009-0.863 0.019-1.922-0.013-2.969-0.046-1.461-0.176-2.908-0.517-3.77l-0-0c-0.462-1.151-1.344-2.034-2.489-2.489l-0-0c-0.859-0.339-2.306-0.469-3.767-0.515-1.055-0.033-2.123-0.023-2.99-0.015-0.335 0.003-0.64 0.006-0.903 0.006-0.268 0-0.58-0.003-0.922-0.007-0.863-0.009-1.922-0.019-2.969 0.013-1.461 0.046-2.908 0.176-3.77 0.517l-0 0c-1.151 0.462-2.034 1.344-2.489 2.49l-0 0c-0.339 0.859-0.469 2.306-0.515 3.767-0.033 1.055-0.023 2.123-0.015 2.99 0.003 0.335 0.006 0.64 0.006 0.903 0 0.268-0.003 0.58-0.007 0.922-0.009 0.863-0.019 1.922 0.013 2.969 0.046 1.461 0.176 2.908 0.517 3.77l0 0c0.462 1.151 1.344 2.034 2.49 2.489l0 0c0.859 0.339 2.306 0.469 3.767 0.515 1.055 0.033 2.123 0.023 2.99 0.015 0.335-0.003 0.64-0.006 0.903-0.006 0.268 0 0.58 0.003 0.922 0.007 0.863 0.009 1.922 0.019 2.969-0.013 1.461-0.046 2.908-0.176 3.77-0.517zM9.729 16.323c0-3.657 2.949-6.606 6.606-6.606s6.606 2.949 6.606 6.606c0 3.657-2.949 6.606-6.606 6.606s-6.606-2.949-6.606-6.606zM11.969 16.323c0 2.408 1.964 4.366 4.366 4.366s4.366-1.958 4.366-4.366c0-2.408-1.958-4.366-4.366-4.366s-4.366 1.958-4.366 4.366zM24.764 9.402c0 0.838-0.675 1.508-1.508 1.508-0.838 0-1.507-0.675-1.507-1.508s0.675-1.508 1.507-1.508c0.833 0 1.508 0.675 1.508 1.508z"></path>
</symbol>
<symbol id="icon-pinterest" viewBox="0 0 32 32">
<path d="M10.886 30.878c-0.128-1.221-0.243-3.063 0.064-4.379 0.14-0.604 0.591-2.521 1.008-4.288l0.794-3.368-0.014-0.030c-0.013-0.028-0.031-0.070-0.053-0.125-0.044-0.109-0.102-0.268-0.16-0.47-0.116-0.405-0.232-0.981-0.232-1.67 0-2.159 1.254-3.789 2.836-3.789 0.671 0 1.172 0.252 1.504 0.658 0.331 0.404 0.492 0.958 0.492 1.556 0 0.67-0.212 1.502-0.476 2.391-0.074 0.249-0.152 0.502-0.231 0.758-0.204 0.662-0.413 1.341-0.57 2.002h-0c-0.36 1.509 0.755 2.738 2.245 2.738 1.357 0 2.559-0.715 3.424-1.952s1.391-2.997 1.391-5.079c0-1.839-0.661-3.398-1.79-4.498s-2.732-1.742-4.618-1.742c-4.371 0-6.931 3.273-6.931 6.657 0 1.317 0.508 2.727 1.13 3.497 0 0 0 0 0 0l-0.032 0.026c0.124 0.149 0.143 0.286 0.106 0.442l0.114 10.663zM10.886 30.878c-5.691-2.258-9.722-7.816-9.722-14.317 0-8.506 6.892-15.397 15.397-15.397s15.397 6.892 15.397 15.397c0 8.506-6.891 15.397-15.397 15.397-1.571 0-3.081-0.236-4.507-0.674l-1.169-0.407z"></path>
</symbol>
<symbol id="icon-planer" viewBox="0 0 32 32">
<path d="M25.6 4.049c-1.285-0.451-2.351-1.53-2.351-2.893 0-0.632-0.542-1.157-1.195-1.157s-1.195 0.524-1.195 1.157c0 1.278-1.036 2.313-2.313 2.313h-5.734c-1.278 0-2.313-1.036-2.313-2.313 0-0.632-0.542-1.157-1.195-1.157s-1.195 0.524-1.195 1.157c0 1.362-1.066 2.442-2.351 2.893-2.727 0.957-4.105 3.13-4.359 6.068-0.032 0.447 0.351 0.817 0.797 0.817h26.968c0.462 0 0.845-0.386 0.797-0.817-0.254-2.937-1.632-5.111-4.359-6.068z"></path>
<path d="M28.429 13.247h-25.502c-0.877 0-1.594 0.694-1.594 1.542v9.5c0 4.627 2.391 7.711 7.969 7.711h12.751c5.579 0 7.969-3.084 7.969-7.711v-9.5c0-0.848-0.717-1.542-1.594-1.542zM11.231 26.155c-0.080 0.062-0.159 0.139-0.239 0.185-0.096 0.062-0.191 0.108-0.287 0.139-0.096 0.046-0.191 0.077-0.287 0.093-0.112 0.015-0.207 0.031-0.319 0.031-0.207 0-0.414-0.046-0.606-0.123-0.207-0.077-0.367-0.185-0.526-0.324-0.287-0.293-0.462-0.694-0.462-1.095s0.175-0.802 0.462-1.095c0.159-0.139 0.319-0.247 0.526-0.324 0.287-0.123 0.606-0.154 0.924-0.093 0.096 0.015 0.191 0.046 0.287 0.093 0.096 0.031 0.191 0.077 0.287 0.139 0.080 0.062 0.159 0.123 0.239 0.185 0.287 0.293 0.462 0.694 0.462 1.095s-0.175 0.802-0.462 1.095zM11.231 20.757c-0.303 0.278-0.717 0.447-1.132 0.447s-0.829-0.17-1.132-0.447c-0.287-0.293-0.462-0.694-0.462-1.095s0.175-0.802 0.462-1.095c0.446-0.432 1.148-0.571 1.737-0.324 0.207 0.077 0.383 0.185 0.526 0.324 0.287 0.293 0.462 0.694 0.462 1.095s-0.175 0.802-0.462 1.095zM16.81 26.155c-0.303 0.277-0.717 0.447-1.132 0.447s-0.829-0.17-1.132-0.447c-0.287-0.293-0.462-0.694-0.462-1.095s0.175-0.802 0.462-1.095c0.59-0.571 1.674-0.571 2.263 0 0.287 0.293 0.462 0.694 0.462 1.095s-0.175 0.802-0.462 1.095zM16.81 20.757c-0.080 0.062-0.159 0.123-0.239 0.185-0.096 0.062-0.191 0.108-0.287 0.139-0.096 0.046-0.191 0.077-0.287 0.093-0.112 0.015-0.207 0.031-0.319 0.031-0.414 0-0.829-0.17-1.132-0.447-0.287-0.293-0.462-0.694-0.462-1.095s0.175-0.802 0.462-1.095c0.143-0.139 0.319-0.247 0.526-0.324 0.59-0.247 1.291-0.108 1.737 0.324 0.287 0.293 0.462 0.694 0.462 1.095s-0.175 0.802-0.462 1.095zM22.388 26.155c-0.303 0.277-0.717 0.447-1.132 0.447s-0.829-0.17-1.132-0.447c-0.287-0.293-0.462-0.694-0.462-1.095s0.175-0.802 0.462-1.095c0.59-0.571 1.674-0.571 2.263 0 0.287 0.293 0.462 0.694 0.462 1.095s-0.175 0.802-0.462 1.095zM22.388 20.757c-0.080 0.062-0.159 0.123-0.239 0.185-0.096 0.062-0.191 0.108-0.287 0.139-0.096 0.046-0.191 0.077-0.287 0.093-0.112 0.015-0.223 0.031-0.319 0.031-0.414 0-0.829-0.17-1.132-0.447-0.287-0.293-0.462-0.694-0.462-1.095s0.175-0.802 0.462-1.095c0.159-0.139 0.319-0.247 0.526-0.324 0.287-0.123 0.606-0.154 0.924-0.093 0.096 0.015 0.191 0.046 0.287 0.093 0.096 0.031 0.191 0.077 0.287 0.139 0.080 0.062 0.159 0.123 0.239 0.185 0.287 0.293 0.462 0.694 0.462 1.095s-0.175 0.802-0.462 1.095z"></path>
</symbol>
<symbol id="icon-quotation" viewBox="0 0 32 32">
<path d="M0 17.687h8.375v2.443c0 1.396-1.136 2.531-2.531 2.531h-3.219v6.25h3.219c4.842 0 8.781-3.939 8.781-8.781v-17.068h-14.625v14.625z"></path>
<path d="M17.375 3.063v14.625h8.375v2.443c0 1.396-1.135 2.531-2.531 2.531h-3.219v6.25h3.219c4.842 0 8.781-3.939 8.781-8.781v-17.068h-14.625z"></path>
</symbol>
<symbol id="icon-rating" viewBox="0 0 32 32">
<path fill="#ffd751" style="fill: var(--color5, #ffd751)" d="M31.821 12.461c-0.296-0.906-1.082-1.565-2.029-1.702l-7.992-1.156-3.575-7.207c-0.423-0.854-1.297-1.394-2.254-1.394s-1.83 0.541-2.253 1.394l-3.574 7.207-7.993 1.156c-0.947 0.137-1.733 0.797-2.029 1.702s-0.049 1.899 0.636 2.564l5.784 5.61-1.366 7.922c-0.162 0.938 0.226 1.887 1 2.446 0.438 0.317 0.956 0.478 1.477 0.478 0.4 0 0.802-0.095 1.169-0.287l7.149-3.74 7.149 3.74c0.847 0.443 1.872 0.369 2.647-0.19s1.161-1.508 1-2.446l-1.365-7.922 5.783-5.61c0.685-0.664 0.932-1.658 0.636-2.564z"></path>
<path fill="#f4c82a" style="fill: var(--color6, #f4c82a)" d="M31.821 12.459c-0.296-0.905-1.082-1.565-2.028-1.702l-7.993-1.156-3.574-7.207c-0.423-0.854-1.297-1.394-2.254-1.394v26.451l7.149 3.74c0.847 0.442 1.872 0.369 2.647-0.191s1.161-1.508 1-2.446l-1.365-7.922 5.783-5.61c0.685-0.664 0.931-1.658 0.635-2.563z"></path>
</symbol>
<symbol id="icon-start-up" viewBox="0 0 32 32">
<path fill="#ff9737" style="fill: var(--color7, #ff9737)" d="M1.783 32h-0.845c-0.518 0-0.938-0.42-0.938-0.938v-0.845c0-2.262 0.577-4.504 1.67-6.486 1.088-1.974 2.67-3.657 4.574-4.866 0.371-0.235 0.855-0.182 1.166 0.128l5.596 5.596c0.31 0.31 0.364 0.795 0.128 1.166-1.209 1.904-2.892 3.486-4.866 4.574-1.981 1.092-4.224 1.67-6.485 1.67z"></path>
<path fill="#ff6108" style="fill: var(--color8, #ff6108)" d="M0.938 32h0.845c2.262 0 4.504-0.577 6.485-1.67 1.974-1.088 3.657-2.67 4.866-4.574 0.235-0.371 0.182-0.855-0.128-1.166l-2.798-2.798-9.933 9.933c0.17 0.17 0.404 0.275 0.663 0.275z"></path>
<path fill="#0167ff" style="fill: var(--color9, #0167ff)" d="M20.152 30.464c-0.050 0-0.1-0.004-0.15-0.012-0.298-0.048-0.554-0.237-0.688-0.506l-2.756-5.512c-0.203-0.406-0.086-0.9 0.279-1.171l8.145-6.065c0.274-0.204 0.637-0.243 0.948-0.102s0.52 0.44 0.547 0.781c0.306 3.921-1.113 7.765-3.893 10.545l-1.768 1.768c-0.177 0.177-0.416 0.275-0.663 0.275z"></path>
<path fill="#3685fb" style="fill: var(--color4, #3685fb)" d="M7.985 15.542c-0.142 0-0.285-0.032-0.419-0.099l-5.512-2.756c-0.27-0.135-0.458-0.391-0.506-0.688s0.049-0.6 0.262-0.813l1.768-1.768c2.78-2.78 6.624-4.199 10.545-3.894 0.34 0.027 0.639 0.236 0.781 0.547s0.102 0.674-0.102 0.948l-6.065 8.145c-0.182 0.244-0.464 0.378-0.752 0.378z"></path>
<path fill="#e6f3ff" style="fill: var(--color10, #e6f3ff)" d="M30.854 10.28c-2.392-0.13-4.637-1.129-6.321-2.813s-2.683-3.929-2.813-6.321l-0.017-0.312c-3.097 0.928-5.965 2.613-8.318 4.965l-0.046 0.046c-3.639 3.639-6.4 7.927-8.207 12.745-0.129 0.344-0.045 0.732 0.215 0.992l7.071 7.071c0.179 0.179 0.419 0.275 0.663 0.275 0.11 0 0.222-0.020 0.329-0.060 4.818-1.807 9.106-4.568 12.745-8.207l0.047-0.047c2.353-2.353 4.037-5.221 4.965-8.318l-0.312-0.017z"></path>
<path fill="#d2dcf0" style="fill: var(--color11, #d2dcf0)" d="M12.418 26.653c0.179 0.179 0.419 0.275 0.663 0.275 0.11 0 0.222-0.020 0.329-0.060 4.818-1.807 9.106-4.568 12.745-8.207l0.047-0.047c2.353-2.353 4.037-5.221 4.965-8.318l-0.312-0.017c-2.392-0.13-4.637-1.129-6.321-2.813l-15.651 15.651 3.536 3.536z"></path>
<path fill="#3685fb" style="fill: var(--color4, #3685fb)" d="M31.681 1.074c-0.070-0.384-0.37-0.685-0.755-0.755-3.347-0.609-6.739-0.336-9.871 0.721l0.040 0.731c0.13 2.392 1.129 4.637 2.813 6.321s3.929 2.683 6.321 2.813l0.731 0.040c1.057-3.132 1.329-6.524 0.721-9.871z"></path>
<path fill="#0167ff" style="fill: var(--color9, #0167ff)" d="M23.908 8.092c1.684 1.684 3.929 2.683 6.321 2.813l0.731 0.040c1.057-3.132 1.329-6.524 0.721-9.871-0.035-0.192-0.128-0.363-0.259-0.495l-7.513 7.513z"></path>
<path fill="#3685fb" style="fill: var(--color4, #3685fb)" d="M19.71 16.353c-1.085 0-2.105-0.423-2.873-1.19s-1.19-1.787-1.19-2.873c0-1.085 0.423-2.105 1.19-2.873s1.788-1.19 2.873-1.19 2.105 0.423 2.873 1.19c0.767 0.767 1.19 1.787 1.19 2.873s-0.423 2.105-1.19 2.873c-0.767 0.767-1.788 1.19-2.873 1.19z"></path>
<path fill="#3685fb" style="fill: var(--color4, #3685fb)" d="M6.894 26.044c-0.24 0-0.48-0.092-0.663-0.275-0.366-0.366-0.366-0.96 0-1.326l7.955-7.955c0.366-0.366 0.96-0.366 1.326 0s0.366 0.96 0 1.326l-7.955 7.955c-0.183 0.183-0.423 0.275-0.663 0.275z"></path>
<path fill="#0167ff" style="fill: var(--color9, #0167ff)" d="M16.837 15.163c0.767 0.767 1.788 1.19 2.873 1.19s2.105-0.423 2.873-1.19c0.767-0.767 1.19-1.787 1.19-2.873s-0.423-2.105-1.19-2.873l-5.745 5.745z"></path>
<path fill="#0167ff" style="fill: var(--color9, #0167ff)" d="M6.231 25.77c0.183 0.183 0.423 0.275 0.663 0.275s0.48-0.092 0.663-0.275l7.955-7.955c0.366-0.366 0.366-0.96 0-1.326 0 0 0 0-0 0l-9.281 9.281z"></path>
<path fill="#00f2d9" style="fill: var(--color12, #00f2d9)" d="M19.71 14.478c-0.584 0-1.134-0.227-1.547-0.641s-0.641-0.963-0.641-1.547c0-0.584 0.228-1.134 0.641-1.547s0.962-0.641 1.547-0.641c0.584 0 1.134 0.227 1.547 0.641s0.641 0.963 0.641 1.547c0 0.584-0.227 1.134-0.641 1.547s-0.963 0.641-1.547 0.641z"></path>
<path fill="#00b3a0" style="fill: var(--color13, #00b3a0)" d="M18.163 13.837c0.413 0.413 0.962 0.641 1.547 0.641s1.134-0.227 1.547-0.641c0.413-0.413 0.641-0.963 0.641-1.547s-0.227-1.134-0.641-1.547l-3.094 3.094z"></path>
</symbol>
</defs>
</svg>
